MulatAbay-Italic.ufo
<glyph name="ampersand" format="2">
  <advance width="1273"/>
  <unicode hex="0026"/>
  <note>
uni0026
</note>
  <outline>
    <contour>
      <point x="378" y="-20" type="curve" smooth="yes"/>
      <point x="515" y="-20"/>
      <point x="663" y="27"/>
      <point x="777" y="115" type="curve"/>
      <point x="854" y="0" type="line"/>
      <point x="1076" y="0" type="line"/>
      <point x="912" y="249" type="line"/>
      <point x="1014" y="361"/>
      <point x="1080" y="502"/>
      <point x="1110" y="672" type="curve"/>
      <point x="943" y="672" type="line"/>
      <point x="924" y="566"/>
      <point x="884" y="470"/>
      <point x="824" y="383" type="curve"/>
      <point x="568" y="770" type="line"/>
      <point x="689" y="849" type="line" smooth="yes"/>
      <point x="856" y="958"/>
      <point x="924" y="1051"/>
      <point x="945" y="1168" type="curve" smooth="yes"/>
      <point x="976" y="1345"/>
      <point x="853" y="1476"/>
      <point x="653" y="1476" type="curve" smooth="yes"/>
      <point x="429" y="1476"/>
      <point x="266" y="1343"/>
      <point x="227" y="1122" type="curve" smooth="yes"/>
      <point x="210" y="1027"/>
      <point x="230" y="946"/>
      <point x="331" y="789" type="curve"/>
      <point x="84" y="633"/>
      <point x="4" y="531"/>
      <point x="-21" y="391" type="curve" smooth="yes"/>
      <point x="-64" y="144"/>
      <point x="94" y="-20"/>
    </contour>
    <contour>
      <point x="404" y="131" type="curve" smooth="yes"/>
      <point x="227" y="131"/>
      <point x="136" y="234"/>
      <point x="164" y="391" type="curve" smooth="yes"/>
      <point x="179" y="478"/>
      <point x="250" y="562"/>
      <point x="376" y="644" type="curve" smooth="yes"/>
      <point x="413" y="668" type="line"/>
      <point x="693" y="243" type="line"/>
      <point x="599" y="168"/>
      <point x="502" y="131"/>
    </contour>
    <contour>
      <point x="489" y="888" type="line"/>
      <point x="427" y="984"/>
      <point x="402" y="1064"/>
      <point x="413" y="1128" type="curve" smooth="yes"/>
      <point x="433" y="1241"/>
      <point x="516" y="1324"/>
      <point x="626" y="1324" type="curve" smooth="yes"/>
      <point x="727" y="1324"/>
      <point x="790" y="1257"/>
      <point x="774" y="1168" type="curve" smooth="yes"/>
      <point x="760" y="1085"/>
      <point x="723" y="1035"/>
      <point x="621" y="971" type="curve" smooth="yes"/>
    </contour>
  </outline>
</glyph>
<glyph name="asterisk" format="2">
  <advance width="882"/>
  <unicode hex="002A"/>
  <note>
uni002A
</note>
  <outline>
    <contour>
      <point x="537" y="609" type="line"/>
      <point x="677" y="703" type="line"/>
      <point x="527" y="974" type="line"/>
      <point x="850" y="1065" type="line"/>
      <point x="831" y="1217" type="line"/>
      <point x="514" y="1107" type="line"/>
      <point x="586" y="1456" type="line"/>
      <point x="433" y="1456" type="line"/>
      <point x="381" y="1112" type="line"/>
      <point x="99" y="1224" type="line"/>
      <point x="26" y="1073" type="line"/>
      <point x="313" y="983" type="line"/>
      <point x="63" y="707" type="line"/>
      <point x="172" y="616" type="line"/>
      <point x="401" y="897" type="line"/>
    </contour>
  </outline>
</glyph>
<glyph name="comma" format="2">
  <advance width="402"/>
  <unicode hex="002C"/>
  <note>
uni002C
</note>
  <outline>
    <contour>
      <point x="-108" y="-290" type="line"/>
      <point x="6" y="-209"/>
      <point x="107" y="-61"/>
      <point x="130" y="74" type="curve" smooth="yes"/>
      <point x="156" y="219" type="line"/>
      <point x="-25" y="219" type="line"/>
      <point x="-55" y="52" type="line" smooth="yes"/>
      <point x="-74" y="-41"/>
      <point x="-122" y="-131"/>
      <point x="-200" y="-218" type="curve"/>
    </contour>
  </outline>
</glyph>
<glyph name="less" format="2">
  <advance width="1041"/>
  <unicode hex="003C"/>
  <note>
uni003C
</note>
  <outline>
    <contour>
      <point x="734" y="195" type="line"/>
      <point x="768" y="391" type="line"/>
      <point x="187" y="644" type="line"/>
      <point x="858" y="902" type="line"/>
      <point x="893" y="1098" type="line"/>
      <point x="8" y="720" type="line"/>
      <point x="-18" y="574" type="line"/>
    </contour>
  </outline>
</glyph>
<glyph name="R" format="2">
  <advance width="1261"/>
  <unicode hex="0052"/>
  <note>
uni0052
</note>
  <outline>
    <contour>
      <point x="-23" y="0" type="line"/>
      <point x="170" y="0" type="line"/>
      <point x="274" y="589" type="line"/>
      <point x="616" y="589" type="line"/>
      <point x="828" y="0" type="line"/>
      <point x="1040" y="0" type="line"/>
      <point x="803" y="630" type="line"/>
      <point x="990" y="697"/>
      <point x="1118" y="837"/>
      <point x="1150" y="1018" type="curve" smooth="yes"/>
      <point x="1200" y="1303"/>
      <point x="1044" y="1456"/>
      <point x="716" y="1456" type="curve" smooth="yes"/>
      <point x="234" y="1456" type="line"/>
    </contour>
    <contour>
      <point x="302" y="746" type="line"/>
      <point x="399" y="1298" type="line"/>
      <point x="693" y="1298" type="line" smooth="yes"/>
      <point x="896" y="1298"/>
      <point x="988" y="1198"/>
      <point x="957" y="1018" type="curve" smooth="yes"/>
      <point x="928" y="853"/>
      <point x="787" y="746"/>
      <point x="597" y="746" type="curve" smooth="yes"/>
    </contour>
  </outline>
</glyph>
<glyph name="S" format="2">
  <advance width="1215"/>
  <unicode hex="0053"/>
  <note>
uni0053
</note>
  <outline>
    <contour>
      <point x="437" y="-20" type="curve" smooth="yes"/>
      <point x="745" y="-20"/>
      <point x="971" y="134"/>
      <point x="1012" y="370" type="curve" smooth="yes"/>
      <point x="1060" y="642"/>
      <point x="850" y="747"/>
      <point x="606" y="819" type="curve" smooth="yes"/>
      <point x="376" y="887"/>
      <point x="299" y="963"/>
      <point x="320" y="1082" type="curve" smooth="yes"/>
      <point x="346" y="1230"/>
      <point x="473" y="1318"/>
      <point x="663" y="1318" type="curve" smooth="yes"/>
      <point x="867" y="1318"/>
      <point x="965" y="1211"/>
      <point x="934" y="1035" type="curve"/>
      <point x="1127" y="1035" type="line"/>
      <point x="1155" y="1196"/>
      <point x="1091" y="1341"/>
      <point x="948" y="1418" type="curve" smooth="yes"/>
      <point x="876" y="1457"/>
      <point x="790" y="1476"/>
      <point x="690" y="1476" type="curve" smooth="yes"/>
      <point x="592" y="1476"/>
      <point x="500" y="1457"/>
      <point x="421" y="1423" type="curve" smooth="yes"/>
      <point x="263" y="1357"/>
      <point x="152" y="1231"/>
      <point x="125" y="1079" type="curve" smooth="yes"/>
      <point x="90" y="876"/>
      <point x="209" y="744"/>
      <point x="522" y="649" type="curve" smooth="yes"/>
      <point x="771" y="573"/>
      <point x="844" y="511"/>
      <point x="819" y="368" type="curve" smooth="yes"/>
      <point x="794" y="225"/>
      <point x="667" y="137"/>
      <point x="464" y="137" type="curve" smooth="yes"/>
      <point x="247" y="137"/>
      <point x="126" y="246"/>
      <point x="157" y="422" type="curve"/>
      <point x="-36" y="422" type="line"/>
      <point x="-66" y="253"/>
      <point x="7" y="114"/>
      <point x="167" y="38" type="curve" smooth="yes"/>
      <point x="247" y="-1"/>
      <point x="337" y="-20"/>
    </contour>
  </outline>
</glyph>
<glyph name="grave" format="2">
  <advance width="633"/>
  <unicode hex="0060"/>
  <note>
uni0060
</note>
  <outline>
    <contour>
      <point x="343" y="1242" type="line"/>
      <point x="502" y="1242" type="line"/>
      <point x="360" y="1536" type="line"/>
      <point x="137" y="1536" type="line"/>
    </contour>
  </outline>
</glyph>
<glyph name="m" format="2">
  <advance width="1795"/>
  <unicode hex="006D"/>
  <note>
uni006D
</note>
  <outline>
    <contour>
      <point x="-52" y="0" type="line"/>
      <point x="133" y="0" type="line"/>
      <point x="273" y="790" type="line"/>
      <point x="335" y="893"/>
      <point x="428" y="945"/>
      <point x="549" y="945" type="curve" smooth="yes"/>
      <point x="703" y="945"/>
      <point x="766" y="866"/>
      <point x="738" y="709" type="curve" smooth="yes"/>
      <point x="613" y="0" type="line"/>
      <point x="799" y="0" type="line"/>
      <point x="926" y="718" type="line"/>
      <point x="965" y="857"/>
      <point x="1079" y="945"/>
      <point x="1216" y="945" type="curve" smooth="yes"/>
      <point x="1383" y="945"/>
      <point x="1433" y="869"/>
      <point x="1406" y="714" type="curve" smooth="yes"/>
      <point x="1280" y="0" type="line"/>
      <point x="1465" y="0" type="line"/>
      <point x="1593" y="725" type="line" smooth="yes"/>
      <point x="1633" y="976"/>
      <point x="1535" y="1102"/>
      <point x="1298" y="1102" type="curve" smooth="yes"/>
      <point x="1140" y="1102"/>
      <point x="1012" y="1032"/>
      <point x="922" y="928" type="curve"/>
      <point x="888" y="1044"/>
      <point x="795" y="1102"/>
      <point x="644" y="1102" type="curve" smooth="yes"/>
      <point x="509" y="1102"/>
      <point x="394" y="1055"/>
      <point x="298" y="962" type="curve"/>
      <point x="314" y="1082" type="line"/>
      <point x="139" y="1082" type="line"/>
    </contour>
  </outline>
</glyph>
<glyph name="brokenbar" format="2">
  <advance width="491"/>
  <unicode hex="00A6"/>
  <note>
uni00A6
</note>
  <outline>
    <contour>
      <point x="-91" y="-270" type="line"/>
      <point x="95" y="-270" type="line"/>
      <point x="234" y="521" type="line"/>
      <point x="48" y="521" type="line"/>
    </contour>
    <contour>
      <point x="79" y="698" type="line"/>
      <point x="265" y="698" type="line"/>
      <point x="399" y="1456" type="line"/>
      <point x="213" y="1456" type="line"/>
    </contour>
  </outline>
</glyph>
<glyph name="section" format="2">
  <advance width="1256"/>
  <unicode hex="00A7"/>
  <outline>
    <contour>
      <point x="334" y="-495" type="curve" smooth="yes"/>
      <point x="638" y="-495"/>
      <point x="847" y="-352"/>
      <point x="887" y="-128" type="curve" smooth="yes"/>
      <point x="910" y="5"/>
      <point x="876" y="92"/>
      <point x="796" y="157" type="curve"/>
      <point x="930" y="214"/>
      <point x="1008" y="305"/>
      <point x="1030" y="431" type="curve" smooth="yes"/>
      <point x="1079" y="706"/>
      <point x="872" y="784"/>
      <point x="622" y="858" type="curve" smooth="yes"/>
      <point x="493" y="896"/>
      <point x="301" y="933"/>
      <point x="332" y="1112" type="curve" smooth="yes"/>
      <point x="355" y="1243"/>
      <point x="484" y="1325"/>
      <point x="673" y="1325" type="curve" smooth="yes"/>
      <point x="858" y="1325"/>
      <point x="960" y="1212"/>
      <point x="930" y="1045" type="curve"/>
      <point x="1115" y="1045" type="line"/>
      <point x="1164" y="1318"/>
      <point x="1009" y="1476"/>
      <point x="699" y="1476" type="curve" smooth="yes"/>
      <point x="403" y="1476"/>
      <point x="185" y="1331"/>
      <point x="146" y="1110" type="curve" smooth="yes"/>
      <point x="122" y="977"/>
      <point x="156" y="890"/>
      <point x="233" y="825" type="curve"/>
      <point x="101" y="766"/>
      <point x="24" y="675"/>
      <point x="2" y="551" type="curve" smooth="yes"/>
      <point x="-45" y="281"/>
      <point x="182" y="235"/>
      <point x="394" y="126" type="curve" smooth="yes"/>
      <point x="578" y="32"/>
      <point x="723" y="0"/>
      <point x="700" y="-130" type="curve" smooth="yes"/>
      <point x="678" y="-258"/>
      <point x="542" y="-343"/>
      <point x="361" y="-343" type="curve" smooth="yes"/>
      <point x="153" y="-343"/>
      <point x="44" y="-235"/>
      <point x="74" y="-62" type="curve"/>
      <point x="-112" y="-64" type="line"/>
      <point x="-165" y="-364"/>
      <point x="43" y="-495"/>
    </contour>
    <contour>
      <point x="632" y="208" type="curve"/>
      <point x="536" y="248"/>
      <point x="389" y="309"/>
      <point x="277" y="370" type="curve" smooth="yes"/>
      <point x="196" y="414"/>
      <point x="172" y="460"/>
      <point x="189" y="553" type="curve" smooth="yes"/>
      <point x="205" y="645"/>
      <point x="266" y="717"/>
      <point x="377" y="742" type="curve"/>
      <point x="600" y="666" type="line" smooth="yes"/>
      <point x="731" y="621"/>
      <point x="870" y="578"/>
      <point x="844" y="428" type="curve" smooth="yes"/>
      <point x="827" y="336"/>
      <point x="741" y="235"/>
    </contour>
  </outline>
</glyph>
<glyph name="logicalnot" format="2">
  <advance width="1134"/>
  <unicode hex="00AC"/>
  <note>
uni00AC
</note>
  <outline>
    <contour>
      <point x="647" y="375" type="line"/>
      <point x="833" y="375" type="line"/>
      <point x="908" y="800" type="line"/>
      <point x="77" y="800" type="line"/>
      <point x="49" y="639" type="line"/>
      <point x="694" y="639" type="line"/>
    </contour>
  </outline>
</glyph>
<glyph name="registered" format="2">
  <advance width="1610"/>
  <unicode hex="00AE"/>
  <note>
uni00AE
</note>
  <outline>
    <contour>
      <point x="606" y="-21" type="curve" smooth="yes"/>
      <point x="870" y="-21"/>
      <point x="1131" y="131"/>
      <point x="1292" y="360" type="curve" smooth="yes"/>
      <point x="1372" y="475"/>
      <point x="1424" y="598"/>
      <point x="1447" y="729" type="curve" smooth="yes"/>
      <point x="1494" y="998"/>
      <point x="1406" y="1244"/>
      <point x="1209" y="1377" type="curve" smooth="yes"/>
      <point x="1111" y="1443"/>
      <point x="997" y="1476"/>
      <point x="869" y="1476" type="curve" smooth="yes"/>
      <point x="613" y="1476"/>
      <point x="353" y="1335"/>
      <point x="187" y="1104" type="curve" smooth="yes"/>
      <point x="105" y="989"/>
      <point x="52" y="864"/>
      <point x="28" y="729" type="curve" smooth="yes"/>
      <point x="-19" y="464"/>
      <point x="65" y="221"/>
      <point x="261" y="83" type="curve" smooth="yes"/>
      <point x="359" y="14"/>
      <point x="474" y="-21"/>
    </contour>
    <contour>
      <point x="626" y="98" type="curve" smooth="yes"/>
      <point x="413" y="98"/>
      <point x="239" y="215"/>
      <point x="167" y="411" type="curve" smooth="yes"/>
      <point x="130" y="508"/>
      <point x="123" y="614"/>
      <point x="143" y="729" type="curve" smooth="yes"/>
      <point x="183" y="956"/>
      <point x="332" y="1164"/>
      <point x="536" y="1274" type="curve" smooth="yes"/>
      <point x="637" y="1329"/>
      <point x="742" y="1356"/>
      <point x="848" y="1356" type="curve" smooth="yes"/>
      <point x="1063" y="1356"/>
      <point x="1238" y="1237"/>
      <point x="1309" y="1045" type="curve" smooth="yes"/>
      <point x="1344" y="948"/>
      <point x="1352" y="843"/>
      <point x="1332" y="729" type="curve" smooth="yes"/>
      <point x="1291" y="500"/>
      <point x="1144" y="295"/>
      <point x="940" y="183" type="curve" smooth="yes"/>
      <point x="838" y="126"/>
      <point x="734" y="98"/>
    </contour>
    <contour>
      <point x="377" y="316" type="line"/>
      <point x="518" y="316" type="line"/>
      <point x="578" y="654" type="line"/>
      <point x="754" y="654" type="line" smooth="yes"/>
      <point x="888" y="649"/>
      <point x="873" y="572"/>
      <point x="851" y="445" type="curve" smooth="yes"/>
      <point x="840" y="383"/>
      <point x="837" y="340"/>
      <point x="842" y="316" type="curve"/>
      <point x="987" y="316" type="line"/>
      <point x="990" y="332" type="line"/>
      <point x="983" y="357"/>
      <point x="985" y="399"/>
      <point x="1005" y="517" type="curve" smooth="yes"/>
      <point x="1023" y="620"/>
      <point x="994" y="688"/>
      <point x="918" y="721" type="curve"/>
      <point x="1011" y="764"/>
      <point x="1065" y="827"/>
      <point x="1079" y="909" type="curve" smooth="yes"/>
      <point x="1109" y="1076"/>
      <point x="1007" y="1165"/>
      <point x="803" y="1165" type="curve" smooth="yes"/>
      <point x="527" y="1165" type="line"/>
    </contour>
    <contour>
      <point x="600" y="782" type="line"/>
      <point x="645" y="1038" type="line"/>
      <point x="783" y="1038" type="line" smooth="yes"/>
      <point x="917" y="1038"/>
      <point x="955" y="1001"/>
      <point x="938" y="904" type="curve" smooth="yes"/>
      <point x="925" y="832"/>
      <point x="853" y="785"/>
      <point x="756" y="782" type="curve" smooth="yes"/>
    </contour>
  </outline>
</glyph>
<glyph name="threesuperior" format="2">
  <advance width="751"/>
  <unicode hex="00B3"/>
  <note>
uni00B3
</note>
  <outline>
    <contour>
      <point x="285" y="656" type="curve" smooth="yes"/>
      <point x="466" y="656"/>
      <point x="607" y="746"/>
      <point x="632" y="887" type="curve" smooth="yes"/>
      <point x="648" y="982"/>
      <point x="610" y="1044"/>
      <point x="515" y="1071" type="curve"/>
      <point x="609" y="1104"/>
      <point x="668" y="1169"/>
      <point x="681" y="1242" type="curve" smooth="yes"/>
      <point x="706" y="1381"/>
      <point x="611" y="1467"/>
      <point x="428" y="1467" type="curve" smooth="yes"/>
      <point x="263" y="1467"/>
      <point x="125" y="1377"/>
      <point x="102" y="1246" type="curve"/>
      <point x="259" y="1246" type="line"/>
      <point x="269" y="1301"/>
      <point x="331" y="1338"/>
      <point x="407" y="1338" type="curve" smooth="yes"/>
      <point x="500" y="1338"/>
      <point x="533" y="1295"/>
      <point x="522" y="1235" type="curve" smooth="yes"/>
      <point x="511" y="1171"/>
      <point x="455" y="1126"/>
      <point x="357" y="1126" type="curve" smooth="yes"/>
      <point x="273" y="1126" type="line"/>
      <point x="252" y="1010" type="line"/>
      <point x="340" y="1010" type="line" smooth="yes"/>
      <point x="444" y="1009"/>
      <point x="489" y="970"/>
      <point x="476" y="895" type="curve" smooth="yes"/>
      <point x="464" y="827"/>
      <point x="407" y="784"/>
      <point x="313" y="784" type="curve" smooth="yes"/>
      <point x="224" y="784"/>
      <point x="175" y="829"/>
      <point x="186" y="889" type="curve"/>
      <point x="28" y="889" type="line"/>
      <point x="3" y="746"/>
      <point x="109" y="656"/>
    </contour>
  </outline>
</glyph>
<glyph name="paragraph" format="2">
  <advance width="1001"/>
  <unicode hex="00B6"/>
  <note>
uni00B6
</note>
  <outline>
    <contour>
      <point x="455" y="0" type="line"/>
      <point x="641" y="0" type="line"/>
      <point x="898" y="1456" type="line"/>
      <point x="629" y="1456" type="line" smooth="yes"/>
      <point x="322" y="1456"/>
      <point x="101" y="1272"/>
      <point x="50" y="988" type="curve" smooth="yes"/>
      <point x="0" y="703"/>
      <point x="156" y="520"/>
      <point x="463" y="520" type="curve" smooth="yes"/>
      <point x="547" y="520" type="line"/>
    </contour>
  </outline>
</glyph>
<glyph name="periodcentered" format="2">
  <advance width="534"/>
  <unicode hex="00B7"/>
  <note>
uni00B7
</note>
  <outline>
    <contour>
      <point x="179" y="619" type="curve" smooth="yes"/>
      <point x="255" y="619"/>
      <point x="304" y="666"/>
      <point x="315" y="729" type="curve" smooth="yes"/>
      <point x="326" y="793"/>
      <point x="295" y="841"/>
      <point x="219" y="841" type="curve" smooth="yes"/>
      <point x="143" y="841"/>
      <point x="96" y="793"/>
      <point x="85" y="729" type="curve" smooth="yes"/>
      <point x="74" y="666"/>
      <point x="103" y="619"/>
    </contour>
  </outline>
</glyph>
<glyph name="AE" format="2">
  <advance width="1914"/>
  <unicode hex="00C6"/>
  <note>
uni00C6
</note>
  <outline>
    <contour>
      <point x="-205" y="0" type="line"/>
      <point x="21" y="0" type="line"/>
      <point x="288" y="353" type="line"/>
      <point x="852" y="353" type="line"/>
      <point x="805" y="0" type="line"/>
      <point x="1688" y="0" type="line"/>
      <point x="1715" y="151" type="line"/>
      <point x="1010" y="151" type="line"/>
      <point x="1081" y="682" type="line"/>
      <point x="1665" y="682" type="line"/>
      <point x="1692" y="833" type="line"/>
      <point x="1102" y="833" type="line"/>
      <point x="1165" y="1304" type="line"/>
      <point x="1856" y="1304" type="line"/>
      <point x="1883" y="1456" type="line"/>
      <point x="932" y="1456" type="line"/>
    </contour>
    <contour>
      <point x="420" y="527" type="line"/>
      <point x="974" y="1260" type="line"/>
      <point x="876" y="527" type="line"/>
    </contour>
  </outline>
</glyph>
<glyph name="Oslash" format="2">
  <advance width="1408"/>
  <unicode hex="00D8"/>
  <note>
uni00D8
</note>
  <outline>
    <contour>
      <point x="-43" y="-93" type="line"/>
      <point x="99" y="-93" type="line"/>
      <point x="223" y="62" type="line"/>
      <point x="301" y="7"/>
      <point x="397" y="-20"/>
      <point x="511" y="-20" type="curve" smooth="yes"/>
      <point x="745" y="-20"/>
      <point x="947" y="95"/>
      <point x="1080" y="308" type="curve" smooth="yes"/>
      <point x="1147" y="414"/>
      <point x="1193" y="538"/>
      <point x="1218" y="681" type="curve" smooth="yes"/>
      <point x="1236" y="780" type="line" smooth="yes"/>
      <point x="1269" y="976"/>
      <point x="1251" y="1136"/>
      <point x="1182" y="1261" type="curve"/>
      <point x="1386" y="1516" type="line"/>
      <point x="1245" y="1516" type="line"/>
      <point x="1112" y="1351" type="line"/>
      <point x="1028" y="1434"/>
      <point x="915" y="1476"/>
      <point x="772" y="1476" type="curve" smooth="yes"/>
      <point x="543" y="1476"/>
      <point x="337" y="1359"/>
      <point x="202" y="1144" type="curve" smooth="yes"/>
      <point x="134" y="1037"/>
      <point x="88" y="913"/>
      <point x="64" y="773" type="curve" smooth="yes"/>
      <point x="49" y="690" type="line" smooth="yes"/>
      <point x="7" y="450"/>
      <point x="37" y="266"/>
      <point x="142" y="138" type="curve"/>
    </contour>
    <contour>
      <point x="539" y="143" type="curve" smooth="yes"/>
      <point x="459" y="143"/>
      <point x="392" y="164"/>
      <point x="339" y="207" type="curve"/>
      <point x="1043" y="1088" type="line"/>
      <point x="1065" y="1001"/>
      <point x="1065" y="896"/>
      <point x="1044" y="775" type="curve" smooth="yes"/>
      <point x="1025" y="667" type="line" smooth="yes"/>
      <point x="961" y="330"/>
      <point x="787" y="143"/>
    </contour>
    <contour>
      <point x="268" y="296" type="line"/>
      <point x="220" y="390"/>
      <point x="210" y="518"/>
      <point x="238" y="681" type="curve" smooth="yes"/>
      <point x="257" y="788" type="line" smooth="yes"/>
      <point x="319" y="1116"/>
      <point x="501" y="1311"/>
      <point x="743" y="1311" type="curve" smooth="yes"/>
      <point x="854" y="1311"/>
      <point x="937" y="1274"/>
      <point x="992" y="1200" type="curve"/>
    </contour>
  </outline>
</glyph>
<glyph name="dotaccent" format="2">
  <advance width="497"/>
  <unicode hex="02D9"/>
  <note>
uni02D9
</note>
  <outline>
    <contour>
      <point x="282" y="1262" type="curve" smooth="yes"/>
      <point x="354" y="1262"/>
      <point x="400" y="1307"/>
      <point x="410" y="1367" type="curve" smooth="yes"/>
      <point x="421" y="1427"/>
      <point x="391" y="1474"/>
      <point x="319" y="1474" type="curve" smooth="yes"/>
      <point x="247" y="1474"/>
      <point x="202" y="1427"/>
      <point x="191" y="1367" type="curve" smooth="yes"/>
      <point x="181" y="1307"/>
      <point x="210" y="1262"/>
    </contour>
  </outline>
</glyph>
<glyph name="qhwaa-ethiopic" format="2">
  <advance width="1578"/>
  <unicode hex="125B"/>
  <anchor x="580" y="0" name="haa"/>
  <anchor x="475" y="-130" name="haa.acute"/>
  <anchor x="808" y="1363" name="hat"/>
  <anchor x="792" y="1232" name="he.acute.top"/>
  <anchor x="629" y="0" name="hee"/>
  <anchor x="570" y="-239" name="hi"/>
  <anchor x="988" y="1150" name="ho.ring"/>
  <anchor x="1355" y="743" name="hu"/>
  <anchor x="560" y="0" name="hwa"/>
  <anchor x="773" y="1082" name="neck"/>
  <outline>
    <contour>
      <point x="326" y="-20" type="curve" smooth="yes"/>
      <point x="380" y="-20"/>
      <point x="428" y="-16"/>
      <point x="475" y="0" type="curve"/>
      <point x="690" y="0" type="line"/>
      <point x="728" y="-13"/>
      <point x="771" y="-20"/>
      <point x="821" y="-20" type="curve" smooth="yes"/>
      <point x="1072" y="-20"/>
      <point x="1285" y="205"/>
      <point x="1346" y="550" type="curve" smooth="yes"/>
      <point x="1405" y="882"/>
      <point x="1272" y="1102"/>
      <point x="1017" y="1102" type="curve" smooth="yes"/>
      <point x="967" y="1102"/>
      <point x="920" y="1095"/>
      <point x="877" y="1082" type="curve"/>
      <point x="666" y="1082" type="line"/>
      <point x="626" y="1097"/>
      <point x="579" y="1102"/>
      <point x="526" y="1102" type="curve" smooth="yes"/>
      <point x="271" y="1102"/>
      <point x="60" y="882"/>
      <point x="-1" y="536" type="curve" smooth="yes"/>
      <point x="-60" y="205"/>
      <point x="75" y="-20"/>
    </contour>
    <contour>
      <point x="399" y="137" type="curve" smooth="yes"/>
      <point x="220" y="137"/>
      <point x="139" y="284"/>
      <point x="182" y="529" type="curve" smooth="yes"/>
      <point x="231" y="804"/>
      <point x="363" y="945"/>
      <point x="544" y="945" type="curve" smooth="yes"/>
      <point x="579" y="945"/>
      <point x="631" y="940"/>
      <point x="659" y="931" type="curve"/>
      <point x="524" y="163" type="line"/>
      <point x="488" y="147"/>
      <point x="432" y="137"/>
    </contour>
    <contour>
      <point x="761" y="137" type="curve" smooth="yes"/>
      <point x="744" y="135"/>
      <point x="711" y="151"/>
      <point x="696" y="156" type="curve"/>
      <point x="834" y="942" type="line"/>
      <point x="873" y="944"/>
      <point x="908" y="942"/>
      <point x="940" y="936" type="curve" smooth="yes"/>
      <point x="1118" y="904"/>
      <point x="1199" y="762"/>
      <point x="1157" y="529" type="curve" smooth="yes"/>
      <point x="1114" y="284"/>
      <point x="943" y="158"/>
    </contour>
    <contour>
      <point x="268" y="-348" type="line"/>
      <point x="648" y="-348" type="line"/>
      <point x="627" y="-465" type="line"/>
      <point x="727" y="-465" type="line"/>
      <point x="760" y="-277" type="line"/>
      <point x="601" y="-277" type="line"/>
      <point x="653" y="16" type="line"/>
      <point x="468" y="16" type="line"/>
      <point x="416" y="-277" type="line"/>
      <point x="280" y="-277" type="line"/>
    </contour>
    <contour>
      <point x="495" y="1403" type="line"/>
      <point x="1120" y="1403" type="line"/>
      <point x="1134" y="1485" type="line"/>
      <point x="509" y="1485" type="line"/>
    </contour>
    <contour>
      <point x="805" y="1501" type="curve"/>
      <point x="640" y="1501"/>
      <point x="401" y="1399"/>
      <point x="373" y="1242" type="curve" smooth="yes"/>
      <point x="345" y="1082"/>
      <point x="447" y="960"/>
      <point x="609" y="960" type="curve" smooth="yes"/>
      <point x="776" y="960"/>
      <point x="925" y="1085"/>
      <point x="952" y="1242" type="curve" smooth="yes"/>
      <point x="980" y="1397"/>
      <point x="976" y="1501"/>
    </contour>
    <contour>
      <point x="636" y="1443" type="curve" smooth="yes"/>
      <point x="734" y="1443"/>
      <point x="823" y="1379"/>
      <point x="801" y="1252" type="curve" smooth="yes"/>
      <point x="782" y="1146"/>
      <point x="678" y="1051"/>
      <point x="562" y="1051" type="curve" smooth="yes"/>
      <point x="452" y="1051"/>
      <point x="383" y="1140"/>
      <point x="403" y="1252" type="curve" smooth="yes"/>
      <point x="425" y="1378"/>
      <point x="534" y="1442"/>
    </contour>
  </outline>
</glyph>
<glyph name="xe-ethiopic" format="2">
  <advance width="1007"/>
  <unicode hex="1285"/>
  <anchor x="784" y="10" name="haa"/>
  <anchor x="550" y="-44" name="haa.acute"/>
  <anchor x="489" y="1367" name="hat"/>
  <anchor x="422" y="1316" name="hat.left"/>
  <anchor x="602" y="569" name="he.left.outer"/>
  <anchor x="617" y="40" name="hee"/>
  <anchor x="698" y="110" name="hi"/>
  <anchor x="535" y="691" name="ho.ring"/>
  <anchor x="282" y="1422" name="ho.ring.uniq"/>
  <anchor x="793" y="638" name="hu"/>
  <anchor x="592" y="0" name="hwa"/>
  <anchor x="479" y="1082" name="neck"/>
  <anchor x="258" y="1008" name="neck.left"/>
  <anchor x="193" y="1305" name="nose"/>
  <anchor x="541" y="1110" name="ring"/>
  <anchor x="590" y="1" name="xwaa"/>
  <outline>
    <contour>
      <point x="-54" y="1040" type="line"/>
      <point x="-54" y="824" type="line"/>
      <point x="20" y="824" type="line"/>
      <point x="20" y="1040" type="line"/>
    </contour>
    <component base="ga.base" xOffset="89"/>
    <component base="_smart.neck.left" xOffset="392" yOffset="1032"/>
    <component base="_smart.nose" xOffset="23" yOffset="1196"/>
  </outline>
</glyph>
<glyph name="xwaa-ethiopic" format="2">
  <advance width="858"/>
  <unicode hex="128B"/>
  <anchor x="635" y="10" name="haa"/>
  <anchor x="412" y="0" name="haa.acute"/>
  <anchor x="340" y="1367" name="hat"/>
  <anchor x="273" y="1316" name="hat.left"/>
  <anchor x="702" y="91" name="he.left.outer"/>
  <anchor x="468" y="40" name="hee"/>
  <anchor x="549" y="110" name="hi"/>
  <anchor x="386" y="691" name="ho.ring"/>
  <anchor x="644" y="638" name="hu"/>
  <anchor x="443" y="0" name="hwa"/>
  <anchor x="330" y="1102" name="neck"/>
  <anchor x="106" y="1007" name="neck.left"/>
  <anchor x="43" y="1235" name="nose"/>
  <outline>
    <contour>
      <point x="14" y="-44" type="line"/>
      <point x="476" y="-44" type="line"/>
      <point x="426" y="-328" type="line"/>
      <point x="595" y="-328" type="line"/>
      <point x="660" y="38" type="line"/>
      <point x="29" y="38" type="line"/>
    </contour>
    <component base="ga.base"/>
    <component base="_smart.nose" xOffset="-74" yOffset="1177"/>
    <component base="_smart.neck.left" xOffset="303" yOffset="1032"/>
  </outline>
</glyph>
<glyph name="ne-ethiopic" format="2">
  <advance width="938"/>
  <unicode hex="1295"/>
  <outline>
    <contour>
      <point x="422" y="0" type="line"/>
      <point x="608" y="0" type="line"/>
      <point x="632" y="138" type="line" smooth="yes"/>
      <point x="659" y="291"/>
      <point x="653.217" y="413.123"/>
      <point x="615.842" y="502.812" type="curve"/>
      <point x="682" y="875"/>
      <point x="583" y="1063"/>
      <point x="336" y="1082" type="curve" smooth="yes"/>
      <point x="232" y="1090"/>
      <point x="95" y="1030"/>
      <point x="24" y="988" type="curve"/>
      <point x="180" y="924" type="line"/>
      <point x="203" y="935"/>
      <point x="239" y="946"/>
      <point x="311" y="941" type="curve" smooth="yes"/>
      <point x="453.143" y="931.288"/>
      <point x="476.807" y="834.276"/>
      <point x="455.626" y="658.91" type="curve"/>
      <point x="434.74" y="666.799"/>
      <point x="332" y="673"/>
      <point x="308" y="677" type="curve"/>
      <point x="283" y="535" type="line"/>
      <point x="502" y="504"/>
      <point x="486" y="370"/>
      <point x="447" y="145" type="curve" smooth="yes"/>
    </contour>
  </outline>
</glyph>
<glyph name="nye-ethiopic" format="2">
  <advance width="1196"/>
  <unicode hex="129D"/>
  <anchor x="893" y="10" name="haa"/>
  <anchor x="670" y="0" name="haa.acute"/>
  <anchor x="598" y="1367" name="hat"/>
  <anchor x="531" y="1316" name="hat.left"/>
  <anchor x="960" y="91" name="he.left.outer"/>
  <anchor x="726" y="40" name="hee"/>
  <anchor x="807" y="110" name="hi"/>
  <anchor x="644" y="691" name="ho.ring"/>
  <anchor x="902" y="638" name="hu"/>
  <anchor x="701" y="0" name="hwa"/>
  <anchor x="588" y="1102" name="neck"/>
  <anchor x="364" y="1007" name="neck.left"/>
  <anchor x="301" y="1235" name="nose"/>
  <outline>
    <contour>
      <point x="715" y="-353" type="line"/>
      <point x="848" y="-353" type="line"/>
      <point x="982" y="355" type="line"/>
      <point x="814" y="208" type="line"/>
    </contour>
    <component base="ga.base" xOffset="258"/>
    <component base="_smart.hat.left" xOffset="586" yOffset="1304"/>
  </outline>
</glyph>
<glyph name="yi-ethiopic" format="2">
  <advance width="1180"/>
  <unicode hex="12EA"/>
  <anchor x="-145" y="154" name="da"/>
  <anchor x="560" y="-139" name="di"/>
  <anchor x="568" y="234" name="du"/>
  <anchor x="588" y="0" name="haa"/>
  <anchor x="54" y="-16" name="haa.acute"/>
  <anchor x="493" y="1341" name="hat"/>
  <anchor x="1173" y="756" name="he"/>
  <anchor x="400" y="1080" name="he.left.outer"/>
  <anchor x="442" y="40" name="hee"/>
  <anchor x="656" y="11" name="hha"/>
  <anchor x="467" y="-270" name="hi"/>
  <anchor x="-48" y="0" name="ho"/>
  <anchor x="512" y="309" name="hu"/>
  <anchor x="557" y="0" name="hwa"/>
  <anchor x="489" y="1112" name="neck"/>
  <anchor x="29" y="74" name="ye"/>
  <outline>
    <contour>
      <point x="402" y="245" type="line"/>
      <point x="387" y="110" type="line"/>
      <point x="694" y="110" type="line"/>
      <point x="709" y="245" type="line"/>
    </contour>
    <component base="ya.base"/>
    <component base="_smart.hi" xOffset="302" yOffset="111"/>
  </outline>
</glyph>
<glyph name="paa-ethiopic" format="2">
  <advance width="789"/>
  <unicode hex="1353"/>
  <anchor x="374" y="42" name="haa"/>
  <anchor x="144" y="0" name="haa.acute"/>
  <anchor x="392" y="1339" name="hat"/>
  <anchor x="355" y="1167" name="he.acute.top"/>
  <anchor x="212" y="40" name="hee"/>
  <anchor x="298" y="110" name="hi"/>
  <anchor x="648" y="1274" name="ho.ring"/>
  <anchor x="385" y="669" name="hu"/>
  <anchor x="171" y="0" name="hwa"/>
  <anchor x="358" y="1082" name="neck"/>
  <outline>
    <contour>
      <point x="-121" y="0" type="line"/>
      <point x="151" y="0" type="line"/>
      <point x="171" y="112" type="line"/>
      <point x="-101" y="112" type="line"/>
    </contour>
    <component base="pa.base" xOffset="5"/>
  </outline>
</glyph>
<glyph name="rya-ethiopic" format="2">
  <advance width="984"/>
  <unicode hex="1358"/>
  <anchor x="538" y="101" name="fa"/>
  <anchor x="389" y="-13" name="haa"/>
  <anchor x="364" y="-11" name="haa.acute"/>
  <anchor x="561" y="961" name="hat"/>
  <anchor x="1000" y="759" name="hee"/>
  <anchor x="842" y="830" name="ho.ring"/>
  <anchor x="474" y="4" name="hwa"/>
  <outline>
    <contour>
      <point x="8" y="1082" type="line"/>
      <point x="560" y="1082" type="line"/>
      <point x="580" y="1194" type="line"/>
      <point x="28" y="1194" type="line"/>
    </contour>
    <component base="ra.base"/>
    <component base="acute" xScale="-1" xOffset="1147" yOffset="-930"/>
  </outline>
</glyph>
<glyph name="comma-ethiopic" format="2">
  <advance width="556"/>
  <unicode hex="1363"/>
  <outline>
    <contour>
      <point x="139" y="1312" type="line"/>
      <point x="478" y="1312" type="line"/>
      <point x="500" y="1439" type="line"/>
      <point x="161" y="1439" type="line"/>
    </contour>
    <component base="period" xOffset="20"/>
    <component base="period" xOffset="21" yOffset="883"/>
  </outline>
</glyph>
<glyph name="four-ethiopic" format="2">
  <advance width="1357"/>
  <unicode hex="136C"/>
  <outline>
    <contour>
      <point x="447" y="-20" type="curve" smooth="yes"/>
      <point x="762" y="-20"/>
      <point x="941" y="188"/>
      <point x="1018" y="621" type="curve" smooth="yes"/>
      <point x="1060" y="861" type="line" smooth="yes"/>
      <point x="1130" y="1280"/>
      <point x="1021" y="1476"/>
      <point x="708" y="1476" type="curve" smooth="yes"/>
      <point x="392" y="1476"/>
      <point x="213" y="1271"/>
      <point x="138" y="843" type="curve" smooth="yes"/>
      <point x="94" y="596" type="line" smooth="yes"/>
      <point x="27" y="187"/>
      <point x="136" y="-20"/>
    </contour>
    <contour>
      <point x="473" y="131" type="curve" smooth="yes"/>
      <point x="288" y="131"/>
      <point x="223" y="277"/>
      <point x="279" y="592" type="curve" smooth="yes"/>
      <point x="331" y="888" type="line" smooth="yes"/>
      <point x="386" y="1184"/>
      <point x="493" y="1324"/>
      <point x="682" y="1324" type="curve" smooth="yes"/>
      <point x="873" y="1324"/>
      <point x="933" y="1187"/>
      <point x="877" y="874" type="curve" smooth="yes"/>
      <point x="824" y="571" type="line" smooth="yes"/>
      <point x="766" y="267"/>
      <point x="656" y="131"/>
    </contour>
    <component base="_num.bar" xOffset="115"/>
  </outline>
</glyph>
<glyph name="ten-ethiopic" format="2">
  <advance width="1150"/>
  <unicode hex="1372"/>
  <outline>
    <contour>
      <point x="352" y="0" type="line"/>
      <point x="538" y="0" type="line"/>
      <point x="796" y="1463" type="line"/>
      <point x="767" y="1463" type="line"/>
      <point x="570" y="1233" type="line"/>
    </contour>
    <component base="_num.bar"/>
  </outline>
</glyph>
<glyph name="thirty-ethiopic" format="2">
  <advance width="1150"/>
  <unicode hex="1374"/>
  <outline>
    <contour>
      <point x="-141" y="-31" type="line"/>
      <point x="44" y="-31" type="line"/>
      <point x="197" y="838" type="line" smooth="yes"/>
      <point x="249" y="1134"/>
      <point x="209" y="1274"/>
      <point x="398" y="1274" type="curve" smooth="yes"/>
      <point x="506" y="1274"/>
      <point x="509" y="1137"/>
      <point x="454" y="824" type="curve" smooth="yes"/>
      <point x="411" y="584" type="line" smooth="yes"/>
      <point x="337" y="165"/>
      <point x="420" y="-31"/>
      <point x="733" y="-31" type="curve" smooth="yes"/>
      <point x="939" y="-31"/>
      <point x="968" y="174"/>
      <point x="1043" y="602" type="curve" smooth="yes"/>
      <point x="1189" y="1426" type="line"/>
      <point x="1004" y="1426" type="line"/>
      <point x="850" y="557" type="line" smooth="yes"/>
      <point x="798" y="261"/>
      <point x="839" y="121"/>
      <point x="650" y="121" type="curve" smooth="yes"/>
      <point x="542" y="121"/>
      <point x="539" y="258"/>
      <point x="594" y="571" type="curve" smooth="yes"/>
      <point x="636" y="811" type="line" smooth="yes"/>
      <point x="710" y="1230"/>
      <point x="628" y="1426"/>
      <point x="315" y="1426" type="curve" smooth="yes"/>
      <point x="109" y="1426"/>
      <point x="80" y="1221"/>
      <point x="4" y="793" type="curve" smooth="yes"/>
    </contour>
    <component base="_num.bar"/>
  </outline>
</glyph>
<glyph name="seventy-ethiopic" format="2">
  <advance width="1150"/>
  <unicode hex="1378"/>
  <outline>
    <contour>
      <point x="376" y="-50" type="curve" smooth="yes"/>
      <point x="532" y="-50"/>
      <point x="654" y="1"/>
      <point x="749" y="105" type="curve"/>
      <point x="586" y="166" type="line"/>
      <point x="536" y="122"/>
      <point x="475" y="101"/>
      <point x="403" y="101" type="curve" smooth="yes"/>
      <point x="218" y="101"/>
      <point x="152" y="247"/>
      <point x="208" y="562" type="curve" smooth="yes"/>
      <point x="261" y="858" type="line" smooth="yes"/>
      <point x="314" y="1154"/>
      <point x="422" y="1294"/>
      <point x="611" y="1294" type="curve" smooth="yes"/>
      <point x="686" y="1294"/>
      <point x="742" y="1273"/>
      <point x="777" y="1228" type="curve"/>
      <point x="951" y="1307" type="line"/>
      <point x="892" y="1401"/>
      <point x="789" y="1446"/>
      <point x="638" y="1446" type="curve" smooth="yes"/>
      <point x="322" y="1446"/>
      <point x="144" y="1241"/>
      <point x="68" y="813" type="curve" smooth="yes"/>
      <point x="24" y="566" type="line" smooth="yes"/>
      <point x="-49" y="157"/>
      <point x="65" y="-50"/>
    </contour>
    <component base="_num.bar"/>
    <component base="ring" xOffset="460" yOffset="-291"/>
  </outline>
</glyph>
<glyph name="ninety-ethiopic" format="2">
  <advance width="1150"/>
  <unicode hex="137A"/>
  <outline>
    <contour>
      <point x="630" y="-4" type="line"/>
      <point x="794" y="-4" type="line"/>
      <point x="671" y="635" type="line"/>
      <point x="1105" y="1331" type="line"/>
      <point x="1123" y="1435" type="line"/>
      <point x="139" y="1435" type="line"/>
      <point x="112" y="1283" type="line"/>
      <point x="900" y="1283" type="line"/>
      <point x="489" y="637" type="line"/>
    </contour>
    <component base="_num.bar"/>
  </outline>
</glyph>
<glyph name="hundred-ethiopic" format="2">
  <advance width="1391"/>
  <unicode hex="137B"/>
  <outline>
    <contour>
      <point x="73" y="0" type="line"/>
      <point x="262" y="0" type="line"/>
      <point x="361" y="561" type="line"/>
      <point x="423" y="473"/>
      <point x="519" y="429"/>
      <point x="652" y="429" type="curve" smooth="yes"/>
      <point x="905" y="429"/>
      <point x="1104" y="626"/>
      <point x="1153" y="909" type="curve" smooth="yes"/>
      <point x="1206" y="1209"/>
      <point x="1065" y="1404"/>
      <point x="790" y="1404" type="curve" smooth="yes"/>
      <point x="511" y="1404"/>
      <point x="279" y="1167"/>
      <point x="220" y="830" type="curve" smooth="yes"/>
    </contour>
    <contour>
      <point x="648" y="583" type="curve" smooth="yes"/>
      <point x="521" y="583"/>
      <point x="418" y="668"/>
      <point x="397" y="783" type="curve"/>
      <point x="409" y="851" type="line" smooth="yes"/>
      <point x="452" y="1091"/>
      <point x="602" y="1251"/>
      <point x="763" y="1251" type="curve" smooth="yes"/>
      <point x="930" y="1251"/>
      <point x="1007" y="1117"/>
      <point x="972" y="918" type="curve" smooth="yes"/>
      <point x="937" y="718"/>
      <point x="808" y="583"/>
    </contour>
    <component base="_num.bar" xOffset="132" yOffset="-1"/>
  </outline>
</glyph>
<glyph name="quoteleft" format="2">
  <advance width="409"/>
  <unicode hex="2018"/>
  <note>
uni2018
</note>
  <outline>
    <contour>
      <point x="94" y="1073" type="line"/>
      <point x="278" y="1073" type="line"/>
      <point x="302" y="1209" type="line" smooth="yes"/>
      <point x="322" y="1307"/>
      <point x="370" y="1398"/>
      <point x="447" y="1483" type="curve"/>
      <point x="353" y="1555" type="line"/>
      <point x="236" y="1470"/>
      <point x="139" y="1325"/>
      <point x="115" y="1189" type="curve" smooth="yes"/>
    </contour>
  </outline>
</glyph>
<glyph name="quoteright" format="2">
  <advance width="409"/>
  <unicode hex="2019"/>
  <note>
uni2019
</note>
  <outline>
    <contour>
      <point x="147" y="1046" type="line"/>
      <point x="262" y="1127"/>
      <point x="359" y="1273"/>
      <point x="384" y="1406" type="curve" smooth="yes"/>
      <point x="407" y="1536" type="line"/>
      <point x="224" y="1536" type="line"/>
      <point x="199" y="1392" type="line" smooth="yes"/>
      <point x="180" y="1296"/>
      <point x="132" y="1205"/>
      <point x="54" y="1118" type="curve"/>
    </contour>
  </outline>
</glyph>
<glyph name="daggerdbl" format="2">
  <advance width="1167"/>
  <unicode hex="2021"/>
  <note>
uni2021
</note>
  <outline>
    <contour>
      <point x="220" y="-416" type="line"/>
      <point x="406" y="-416" type="line"/>
      <point x="479" y="0" type="line"/>
      <point x="885" y="0" type="line"/>
      <point x="912" y="151" type="line"/>
      <point x="506" y="151" type="line"/>
      <point x="643" y="929" type="line"/>
      <point x="1049" y="929" type="line"/>
      <point x="1076" y="1082" type="line"/>
      <point x="670" y="1082" type="line"/>
      <point x="736" y="1456" type="line"/>
      <point x="550" y="1456" type="line"/>
      <point x="484" y="1082" type="line"/>
      <point x="87" y="1082" type="line"/>
      <point x="60" y="929" type="line"/>
      <point x="457" y="929" type="line"/>
      <point x="320" y="151" type="line"/>
      <point x="-77" y="151" type="line"/>
      <point x="-104" y="0" type="line"/>
      <point x="293" y="0" type="line"/>
    </contour>
  </outline>
</glyph>
<glyph name="perthousand" format="2">
  <advance width="1962"/>
  <unicode hex="2030"/>
  <note>
uni2030
</note>
  <outline>
    <contour>
      <point x="258" y="110" type="line"/>
      <point x="1169" y="1248" type="line"/>
      <point x="1077" y="1314" type="line"/>
      <point x="165" y="176" type="line"/>
    </contour>
    <contour>
      <point x="950" y="99" type="curve" smooth="yes"/>
      <point x="851" y="99"/>
      <point x="801" y="174"/>
      <point x="819" y="279" type="curve" smooth="yes"/>
      <point x="832" y="353" type="line" smooth="yes"/>
      <point x="852" y="465"/>
      <point x="930" y="536"/>
      <point x="1025" y="536" type="curve" smooth="yes"/>
      <point x="1122" y="536"/>
      <point x="1172" y="462"/>
      <point x="1153" y="357" type="curve" smooth="yes"/>
      <point x="1140" y="283" type="line" smooth="yes"/>
      <point x="1120" y="170"/>
      <point x="1046" y="99"/>
    </contour>
    <contour>
      <point x="318" y="800" type="curve" smooth="yes"/>
      <point x="494" y="800"/>
      <point x="638" y="927"/>
      <point x="668" y="1099" type="curve" smooth="yes"/>
      <point x="681" y="1171" type="line" smooth="yes"/>
      <point x="713" y="1352"/>
      <point x="612" y="1477"/>
      <point x="436" y="1477" type="curve" smooth="yes"/>
      <point x="261" y="1477"/>
      <point x="115" y="1351"/>
      <point x="85" y="1176" type="curve" smooth="yes"/>
      <point x="72" y="1106" type="line" smooth="yes"/>
      <point x="40" y="921"/>
      <point x="145" y="800"/>
    </contour>
    <contour>
      <point x="339" y="920" type="curve" smooth="yes"/>
      <point x="241" y="920"/>
      <point x="191" y="995"/>
      <point x="209" y="1099" type="curve" smooth="yes"/>
      <point x="222" y="1172" type="line" smooth="yes"/>
      <point x="241" y="1283"/>
      <point x="318" y="1356"/>
      <point x="414" y="1356" type="curve" smooth="yes"/>
      <point x="513" y="1356"/>
      <point x="561" y="1280"/>
      <point x="543" y="1176" type="curve" smooth="yes"/>
      <point x="530" y="1103" type="line" smooth="yes"/>
      <point x="510" y="990"/>
      <point x="434" y="920"/>
    </contour>
    <contour>
      <point x="929" y="-21" type="curve" smooth="yes"/>
      <point x="1029" y="-21"/>
      <point x="1112" y="19"/>
      <point x="1177" y="99" type="curve"/>
      <point x="1215" y="19"/>
      <point x="1286" y="-21"/>
      <point x="1388" y="-21" type="curve" smooth="yes"/>
      <point x="1561" y="-21"/>
      <point x="1707" y="104"/>
      <point x="1737" y="279" type="curve" smooth="yes"/>
      <point x="1750" y="350" type="line" smooth="yes"/>
      <point x="1783" y="535"/>
      <point x="1680" y="657"/>
      <point x="1505" y="657" type="curve" smooth="yes"/>
      <point x="1404" y="657"/>
      <point x="1321" y="617"/>
      <point x="1254" y="536" type="curve"/>
      <point x="1217" y="617"/>
      <point x="1147" y="657"/>
      <point x="1046" y="657" type="curve" smooth="yes"/>
      <point x="871" y="657"/>
      <point x="726" y="532"/>
      <point x="695" y="357" type="curve" smooth="yes"/>
      <point x="682" y="285" type="line" smooth="yes"/>
      <point x="650" y="100"/>
      <point x="755" y="-21"/>
    </contour>
    <contour>
      <point x="1408" y="99" type="curve" smooth="yes"/>
      <point x="1310" y="99"/>
      <point x="1260" y="174"/>
      <point x="1278" y="279" type="curve" smooth="yes"/>
      <point x="1291" y="353" type="line" smooth="yes"/>
      <point x="1311" y="464"/>
      <point x="1387" y="536"/>
      <point x="1483" y="536" type="curve" smooth="yes"/>
      <point x="1580" y="536"/>
      <point x="1630" y="462"/>
      <point x="1611" y="357" type="curve" smooth="yes"/>
      <point x="1598" y="283" type="line" smooth="yes"/>
      <point x="1579" y="174"/>
      <point x="1504" y="99"/>
    </contour>
  </outline>
</glyph>
<glyph name="guilsinglright" format="2">
  <advance width="614"/>
  <unicode hex="203A"/>
  <note>
uni203A
</note>
  <outline>
    <contour>
      <point x="-75" y="152" type="line"/>
      <point x="67" y="152" type="line"/>
      <point x="431" y="541" type="line"/>
      <point x="434" y="560" type="line"/>
      <point x="208" y="949" type="line"/>
      <point x="66" y="949" type="line"/>
      <point x="253" y="550" type="line"/>
    </contour>
  </outline>
</glyph>
<glyph name="radical" format="2">
  <advance width="1221"/>
  <unicode hex="221A"/>
  <note>
uni221A
</note>
  <outline>
    <contour>
      <point x="302" y="0" type="line"/>
      <point x="443" y="0" type="line"/>
      <point x="1242" y="1456" type="line"/>
      <point x="1053" y="1456" type="line"/>
      <point x="419" y="284" type="line"/>
      <point x="325" y="782" type="line"/>
      <point x="10" y="782" type="line"/>
      <point x="-17" y="628" type="line"/>
      <point x="168" y="628" type="line"/>
    </contour>
  </outline>
</glyph>
<glyph name="infinity" format="2">
  <advance width="2106"/>
  <unicode hex="221E"/>
  <note>
uni221E
</note>
  <outline>
    <contour>
      <point x="391" y="-21" type="curve" smooth="yes"/>
      <point x="583" y="-21"/>
      <point x="765" y="101"/>
      <point x="915" y="340" type="curve"/>
      <point x="980" y="104"/>
      <point x="1121" y="-21"/>
      <point x="1315" y="-21" type="curve" smooth="yes"/>
      <point x="1497" y="-21"/>
      <point x="1672" y="81"/>
      <point x="1786" y="252" type="curve" smooth="yes"/>
      <point x="1843" y="337"/>
      <point x="1880" y="429"/>
      <point x="1897" y="527" type="curve" smooth="yes"/>
      <point x="1928" y="700"/>
      <point x="1901" y="840"/>
      <point x="1834" y="940" type="curve" smooth="yes"/>
      <point x="1765" y="1041"/>
      <point x="1654" y="1102"/>
      <point x="1515" y="1102" type="curve" smooth="yes"/>
      <point x="1320" y="1102"/>
      <point x="1134" y="976"/>
      <point x="986" y="740" type="curve"/>
      <point x="920" y="979"/>
      <point x="780" y="1102"/>
      <point x="587" y="1102" type="curve" smooth="yes"/>
      <point x="483" y="1102"/>
      <point x="387" y="1071"/>
      <point x="305" y="1018" type="curve" smooth="yes"/>
      <point x="148" y="916"/>
      <point x="36" y="732"/>
      <point x="0" y="529" type="curve" smooth="yes"/>
      <point x="-35" y="328"/>
      <point x="24" y="146"/>
      <point x="155" y="51" type="curve" smooth="yes"/>
      <point x="221" y="3"/>
      <point x="299" y="-21"/>
    </contour>
    <contour>
      <point x="417" y="130" type="curve" smooth="yes"/>
      <point x="236" y="130"/>
      <point x="144" y="291"/>
      <point x="188" y="545" type="curve" smooth="yes"/>
      <point x="232" y="792"/>
      <point x="381" y="950"/>
      <point x="560" y="950" type="curve" smooth="yes"/>
      <point x="719" y="950"/>
      <point x="834" y="799"/>
      <point x="855" y="562" type="curve"/>
      <point x="848" y="520" type="line"/>
      <point x="722" y="264"/>
      <point x="569" y="130"/>
    </contour>
    <contour>
      <point x="1341" y="130" type="curve" smooth="yes"/>
      <point x="1145" y="130"/>
      <point x="1056" y="355"/>
      <point x="1047" y="520" type="curve"/>
      <point x="1054" y="562" type="line"/>
      <point x="1179" y="817"/>
      <point x="1334" y="950"/>
      <point x="1488" y="950" type="curve" smooth="yes"/>
      <point x="1665" y="950"/>
      <point x="1758" y="785"/>
      <point x="1717" y="553" type="curve" smooth="yes"/>
      <point x="1670" y="291"/>
      <point x="1522" y="130"/>
    </contour>
  </outline>
</glyph>
<glyph name="integral" format="2">
  <advance width="524"/>
  <unicode hex="222B"/>
  <note>
uni222B
</note>
  <outline>
    <contour>
      <point x="-233" y="-437" type="curve" smooth="yes"/>
      <point x="-22" y="-437"/>
      <point x="109" y="-323"/>
      <point x="147" y="-107" type="curve" smooth="yes"/>
      <point x="375" y="1186" type="line" smooth="yes"/>
      <point x="401" y="1332"/>
      <point x="475" y="1405"/>
      <point x="596" y="1405" type="curve" smooth="yes"/>
      <point x="632" y="1405"/>
      <point x="662" y="1401"/>
      <point x="685" y="1394" type="curve"/>
      <point x="734" y="1536" type="line"/>
      <point x="681" y="1550"/>
      <point x="634" y="1557"/>
      <point x="594" y="1557" type="curve" smooth="yes"/>
      <point x="379" y="1557"/>
      <point x="232" y="1424"/>
      <point x="192" y="1197" type="curve" smooth="yes"/>
      <point x="-38" y="-108" type="line" smooth="yes"/>
      <point x="-59" y="-226"/>
      <point x="-121" y="-285"/>
      <point x="-224" y="-285" type="curve" smooth="yes"/>
      <point x="-246" y="-285"/>
      <point x="-272" y="-281"/>
      <point x="-301" y="-272" type="curve"/>
      <point x="-344" y="-417" type="line"/>
      <point x="-308" y="-430"/>
      <point x="-271" y="-437"/>
    </contour>
  </outline>
</glyph>
<glyph name=".notdef" format="2">
  <advance width="908"/>
  <note>
.notdef
</note>
  <outline>
    <contour>
      <point x="-91" y="0" type="line"/>
      <point x="617" y="0" type="line"/>
      <point x="874" y="1456" type="line"/>
      <point x="166" y="1456" type="line"/>
    </contour>
    <contour>
      <point x="13" y="54" type="line"/>
      <point x="377" y="660" type="line"/>
      <point x="528" y="54" type="line"/>
    </contour>
    <contour>
      <point x="-20" y="96" type="line"/>
      <point x="203" y="1359" type="line"/>
      <point x="360" y="728" type="line"/>
    </contour>
    <contour>
      <point x="578" y="84" type="line"/>
      <point x="418" y="728" type="line"/>
      <point x="805" y="1371" type="line"/>
    </contour>
    <contour>
      <point x="401" y="796" type="line"/>
      <point x="250" y="1402" type="line"/>
      <point x="765" y="1402" type="line"/>
    </contour>
  </outline>
</glyph>
<glyph name="_nya.hat" format="2">
  <anchor x="846" y="1085" name="_hu"/>
  <outline>
    <contour>
      <point x="39" y="1492" type="line"/>
      <point x="514" y="1492" type="line"/>
      <point x="538" y="1628" type="line"/>
      <point x="63" y="1628" type="line"/>
    </contour>
  </outline>
</glyph>
<glyph name="_smart.aGl" format="2">
  <anchor x="-935" y="753" name="_aGl"/>
  <outline>
    <contour>
      <point x="-1054" y="710" type="line"/>
      <point x="-871" y="710" type="line"/>
      <point x="-800" y="1112" type="line"/>
      <point x="-538" y="1213" type="line"/>
      <point x="-513" y="1357" type="line"/>
      <point x="-833" y="1357" type="line"/>
      <point x="-797" y="1556" type="line"/>
      <point x="-969" y="1556" type="line"/>
      <point x="-1019" y="1275" type="line"/>
      <point x="-633" y="1275" type="line"/>
      <point x="-976" y="1160" type="line"/>
    </contour>
  </outline>
</glyph>
<glyph name="_smart.cha.caps" format="2">
  <anchor x="-194" y="95" name="_cha.caps"/>
  <outline>
    <contour>
      <point x="-602" y="12" type="curve" smooth="yes"/>
      <point x="-530" y="12"/>
      <point x="-484" y="57"/>
      <point x="-473" y="117" type="curve" smooth="yes"/>
      <point x="-463" y="177"/>
      <point x="-492" y="224"/>
      <point x="-564" y="224" type="curve" smooth="yes"/>
      <point x="-636" y="224"/>
      <point x="-682" y="177"/>
      <point x="-692" y="117" type="curve" smooth="yes"/>
      <point x="-703" y="57"/>
      <point x="-674" y="12"/>
    </contour>
    <contour>
      <point x="239" y="12" type="curve" smooth="yes"/>
      <point x="311" y="12"/>
      <point x="357" y="57"/>
      <point x="368" y="117" type="curve" smooth="yes"/>
      <point x="378" y="177"/>
      <point x="349" y="224"/>
      <point x="277" y="224" type="curve" smooth="yes"/>
      <point x="205" y="224"/>
      <point x="159" y="177"/>
      <point x="149" y="117" type="curve" smooth="yes"/>
      <point x="138" y="57"/>
      <point x="167" y="12"/>
    </contour>
  </outline>
</glyph>
<glyph name="_smart.cha" format="2">
  <anchor x="-190" y="34" name="_cha"/>
  <outline>
    <contour>
      <point x="-623" y="19" type="curve" smooth="yes"/>
      <point x="-551" y="19"/>
      <point x="-506" y="64"/>
      <point x="-495" y="124" type="curve" smooth="yes"/>
      <point x="-484" y="184"/>
      <point x="-514" y="231"/>
      <point x="-586" y="231" type="curve" smooth="yes"/>
      <point x="-658" y="231"/>
      <point x="-703" y="184"/>
      <point x="-714" y="124" type="curve" smooth="yes"/>
      <point x="-725" y="64"/>
      <point x="-695" y="19"/>
    </contour>
    <contour>
      <point x="272" y="12" type="curve" smooth="yes"/>
      <point x="344" y="12"/>
      <point x="390" y="57"/>
      <point x="401" y="117" type="curve" smooth="yes"/>
      <point x="411" y="177"/>
      <point x="382" y="224"/>
      <point x="310" y="224" type="curve" smooth="yes"/>
      <point x="238" y="224"/>
      <point x="192" y="177"/>
      <point x="182" y="117" type="curve" smooth="yes"/>
      <point x="171" y="57"/>
      <point x="200" y="12"/>
    </contour>
  </outline>
</glyph>
<glyph name="_smart.da" format="2">
  <anchor x="-159" y="156" name="_da"/>
  <outline>
    <contour>
      <point x="-284" y="-3" type="line" name="❌"/>
      <point x="384" y="-3" type="line" name="❌"/>
      <point x="410" y="148" type="line"/>
      <point x="-258" y="148" type="line"/>
    </contour>
  </outline>
</glyph>
<glyph name="_smart.di" format="2">
  <anchor x="-173" y="224" name="_di"/>
  <outline>
    <contour>
      <point x="-212" y="-100" type="line"/>
      <point x="169" y="-68" type="line"/>
      <point x="298" y="116" type="line"/>
      <point x="-127" y="22" type="line"/>
    </contour>
    <contour>
      <point x="-127" y="506" type="line"/>
      <point x="-225" y="-116" type="line"/>
      <point x="-121" y="-116" type="line"/>
      <point x="-23" y="506" type="line"/>
    </contour>
  </outline>
</glyph>
<glyph name="_smart.fa" format="2">
  <anchor x="252" y="54" name="_fa"/>
  <outline>
    <contour>
      <point x="200" y="551" type="line"/>
      <point x="42" y="549" type="line"/>
      <point x="144" y="55" type="line"/>
      <point x="303" y="55" type="line"/>
    </contour>
  </outline>
</glyph>
<glyph name="_smart.haa" format="2">
  <anchor x="-130" y="344" name="_haa"/>
  <outline>
    <contour>
      <point x="-316" y="-11" type="line" name="❌"/>
      <point x="-131" y="-11" type="line" name="❌"/>
      <point x="-68" y="344" type="line"/>
      <point x="-253" y="344" type="line"/>
    </contour>
  </outline>
</glyph>
<glyph name="_smart.hat.002" format="2">
  <anchor x="352" y="8" name="_hat.002"/>
  <outline>
    <contour>
      <point x="53" y="52" type="line"/>
      <point x="678" y="52" type="line"/>
      <point x="693" y="134" type="line"/>
      <point x="68" y="134" type="line"/>
    </contour>
  </outline>
</glyph>
<glyph name="_smart.hat.left" format="2">
  <anchor x="-184" y="12" name="_hat.left"/>
  <outline>
    <contour>
      <point x="-497" y="52" type="line"/>
      <point x="128" y="52" type="line"/>
      <point x="143" y="134" type="line"/>
      <point x="-482" y="134" type="line"/>
    </contour>
  </outline>
</glyph>
<glyph name="_smart.he.left.inner" format="2">
  <anchor x="-198" y="-41" name="_he.left.inner"/>
  <outline>
    <contour>
      <point x="-107" y="-146" type="curve" smooth="yes"/>
      <point x="-35" y="-146"/>
      <point x="11" y="-101"/>
      <point x="22" y="-41" type="curve" smooth="yes"/>
      <point x="33" y="19"/>
      <point x="3" y="66"/>
      <point x="-69" y="66" type="curve" smooth="yes"/>
      <point x="-141" y="66"/>
      <point x="-186" y="19"/>
      <point x="-197" y="-41" type="curve" smooth="yes"/>
      <point x="-208" y="-101"/>
      <point x="-179" y="-146"/>
    </contour>
  </outline>
</glyph>
<glyph name="_smart.hi" format="2">
  <anchor x="-171" y="115" name="_hi"/>
  <outline>
    <contour>
      <point x="-69" y="-8" type="curve" smooth="yes"/>
      <point x="-2" y="-8"/>
      <point x="65" y="47"/>
      <point x="76" y="115" type="curve" smooth="yes"/>
      <point x="88" y="182"/>
      <point x="41" y="239"/>
      <point x="-26" y="239" type="curve" smooth="yes"/>
      <point x="-94" y="239"/>
      <point x="-159" y="182"/>
      <point x="-171" y="115" type="curve" smooth="yes"/>
      <point x="-182" y="47"/>
      <point x="-137" y="-8"/>
    </contour>
  </outline>
</glyph>
<glyph name="_smart.ho" format="2">
  <anchor x="-125" y="350" name="_ho"/>
  <outline>
    <contour>
      <point x="-270" y="-5" type="line"/>
      <point x="-85" y="-5" type="line"/>
      <point x="-22" y="349" type="line"/>
      <point x="-207" y="349" type="line"/>
    </contour>
  </outline>
</glyph>
<glyph name="_smart.ho.ring" format="2">
  <anchor x="96" y="1111" name="_ho.ring"/>
  <outline>
    <contour>
      <point x="-87" y="1462" type="curve"/>
      <point x="-252" y="1462"/>
      <point x="-491" y="1360"/>
      <point x="-519" y="1203" type="curve" smooth="yes"/>
      <point x="-547" y="1043"/>
      <point x="-444" y="921"/>
      <point x="-282" y="921" type="curve" smooth="yes"/>
      <point x="-115" y="921"/>
      <point x="33" y="1046"/>
      <point x="60" y="1203" type="curve" smooth="yes"/>
      <point x="88" y="1358"/>
      <point x="84" y="1462"/>
    </contour>
    <contour>
      <point x="-256" y="1404" type="curve" smooth="yes"/>
      <point x="-158" y="1404"/>
      <point x="-69" y="1340"/>
      <point x="-91" y="1213" type="curve" smooth="yes"/>
      <point x="-110" y="1107"/>
      <point x="-214" y="1012"/>
      <point x="-330" y="1012" type="curve" smooth="yes"/>
      <point x="-440" y="1012"/>
      <point x="-509" y="1101"/>
      <point x="-489" y="1213" type="curve" smooth="yes"/>
      <point x="-467" y="1339"/>
      <point x="-357" y="1403"/>
    </contour>
  </outline>
</glyph>
<glyph name="_smart.ho.ring.uniq" format="2">
  <anchor x="-1040" y="151" name="_ho.ring.uniq"/>
  <outline>
    <contour>
      <point x="-1045" y="-480" type="curve" smooth="yes"/>
      <point x="-871" y="-480"/>
      <point x="-725" y="-358"/>
      <point x="-697" y="-199" type="curve" smooth="yes"/>
      <point x="-669" y="-39"/>
      <point x="-774" y="88"/>
      <point x="-945" y="88" type="curve" smooth="yes"/>
      <point x="-1110" y="88"/>
      <point x="-1259" y="-36"/>
      <point x="-1288" y="-199" type="curve" smooth="yes"/>
      <point x="-1316" y="-360"/>
      <point x="-1213" y="-480"/>
    </contour>
    <contour>
      <point x="-1076" y="-385" type="curve" smooth="yes"/>
      <point x="-1172" y="-383"/>
      <point x="-1257" y="-322"/>
      <point x="-1235" y="-201" type="curve" smooth="yes"/>
      <point x="-1216" y="-93"/>
      <point x="-1120" y="-7"/>
      <point x="-1014" y="-7" type="curve" smooth="yes"/>
      <point x="-903" y="-7"/>
      <point x="-833" y="-99"/>
      <point x="-851" y="-201" type="curve" smooth="yes"/>
      <point x="-873" y="-324"/>
      <point x="-981" y="-385"/>
    </contour>
  </outline>
</glyph>
<glyph name="_smart.hwa" format="2">
  <anchor x="-126" y="368" name="_hwa"/>
  <outline>
    <contour>
      <point x="-568" y="-30" type="line"/>
      <point x="-78" y="-30" type="line"/>
      <point x="-99" y="-147" type="line"/>
      <point x="41" y="-147" type="line"/>
      <point x="74" y="91" type="line"/>
      <point x="-85" y="91" type="line"/>
      <point x="-33" y="384" type="line"/>
      <point x="-218" y="384" type="line"/>
      <point x="-270" y="91" type="line"/>
      <point x="-556" y="91" type="line"/>
    </contour>
  </outline>
</glyph>
<glyph name="_smart.ka.caps" format="2">
  <anchor x="-965" y="1459" name="_ka.caps"/>
  <outline>
    <contour>
      <point x="-1200" y="1387" type="line"/>
      <point x="-768" y="1397" type="line"/>
      <point x="-758" y="1459" type="line" name="❌"/>
      <point x="-955" y="1459" type="line" name="❌"/>
      <point x="-909" y="1717" type="line"/>
      <point x="-1142" y="1717" type="line"/>
    </contour>
  </outline>
</glyph>
<glyph name="_smart.neck.caps" format="2">
  <anchor x="54" y="1462" name="_neck.caps"/>
  <outline>
    <contour>
      <point x="-13" y="1456" type="line"/>
      <point x="134" y="1456" type="line"/>
      <point x="179" y="1713" type="line"/>
      <point x="32" y="1713" type="line"/>
    </contour>
  </outline>
</glyph>
<glyph name="_smart.neck.hha.caps" format="2">
  <anchor x="-940" y="680" name="_smart..neck.hha.caps"/>
  <anchor x="-980" y="681" name="_smart.neck.hha.caps"/>
  <outline>
    <contour>
      <point x="-1086" y="678" type="line"/>
      <point x="-917" y="678" type="line"/>
      <point x="-760" y="1572" type="line"/>
      <point x="-929" y="1572" type="line"/>
    </contour>
  </outline>
</glyph>
<glyph name="_smart.ri" format="2">
  <anchor x="-117" y="284" name="_ri"/>
  <outline>
    <contour>
      <point x="-80" y="312" type="line"/>
      <point x="-325" y="606" type="line"/>
      <point x="-549" y="606" type="line"/>
      <point x="-229" y="312" type="line"/>
    </contour>
  </outline>
</glyph>
<glyph name="_smart.tsa.belt.caps" format="2">
  <anchor x="-41" y="755" name="_tsa.belt.caps"/>
  <outline>
    <contour>
      <point x="-413" y="681" type="line"/>
      <point x="422" y="681" type="line"/>
      <point x="449" y="832" type="line"/>
      <point x="-386" y="832" type="line"/>
    </contour>
  </outline>
</glyph>
<glyph name="_smart.tsa.belt" format="2">
  <anchor x="-92" y="602" name="_tsa.belt"/>
  <outline>
    <contour>
      <point x="-548" y="500" type="line"/>
      <point x="267" y="500" type="line"/>
      <point x="294" y="652" type="line"/>
      <point x="-521" y="652" type="line"/>
    </contour>
  </outline>
</glyph>
<glyph name="_smart.xwaa" format="2">
  <advance width="858"/>
  <anchor x="416.614" y="19" name="_xwaa"/>
  <outline>
    <contour>
      <point x="14" y="-44" type="line"/>
      <point x="476" y="-44" type="line"/>
      <point x="426" y="-328" type="line"/>
      <point x="595" y="-328" type="line"/>
      <point x="660" y="38" type="line"/>
      <point x="29" y="38" type="line"/>
    </contour>
  </outline>
</glyph>
<glyph name="_smart.ye" format="2">
  <advance width="927"/>
  <anchor x="340" y="44" name="_ye"/>
  <outline>
    <contour>
      <point x="71" y="-209" type="curve"/>
      <point x="195" y="-209" type="line"/>
      <point x="207" y="-144"/>
      <point x="259" y="-97"/>
      <point x="314" y="-97" type="curve" smooth="yes"/>
      <point x="441" y="-97"/>
      <point x="499" y="-192"/>
      <point x="646" y="-192" type="curve" smooth="yes"/>
      <point x="779" y="-192"/>
      <point x="878" y="16"/>
      <point x="904" y="160" type="curve"/>
      <point x="782" y="172" type="line"/>
      <point x="771" y="112"/>
      <point x="729" y="-51"/>
      <point x="662" y="-51" type="curve" smooth="yes"/>
      <point x="551" y="-51"/>
      <point x="450" y="45"/>
      <point x="330" y="45" type="curve" smooth="yes"/>
      <point x="206" y="45"/>
      <point x="97" y="-59"/>
    </contour>
  </outline>
</glyph>
<glyph name="aGl.base.cap" format="2">
  <advance width="1304"/>
  <anchor x="1014" y="-42" name="haa"/>
  <anchor x="342" y="1677" name="hat"/>
  <anchor x="342" y="1677" name="hat.left"/>
  <anchor x="925" y="-1" name="hee"/>
  <anchor x="-84" y="-32" name="ho"/>
  <anchor x="843" y="965" name="hu"/>
  <anchor x="956" y="-41" name="hwa"/>
  <anchor x="1089" y="0" name="ni"/>
  <outline>
    <contour>
      <point x="-163" y="0" type="line"/>
      <point x="47" y="0" type="line"/>
      <point x="646" y="1037" type="line"/>
      <point x="877" y="0" type="line"/>
      <point x="1086" y="0" type="line"/>
      <point x="774" y="1290" type="line"/>
      <point x="800" y="1442" type="line"/>
      <point x="378" y="1442" type="line"/>
      <point x="419" y="1669" type="line"/>
      <point x="259" y="1669" type="line"/>
      <point x="192" y="1290" type="line"/>
      <point x="603" y="1290" type="line"/>
    </contour>
  </outline>
</glyph>
<glyph name="ba.base" format="2">
  <advance width="1250"/>
  <anchor x="254" y="765" name="aGl"/>
  <anchor x="29.668" y="1465" name="eGl"/>
  <anchor x="793" y="-30" name="haa"/>
  <anchor x="687" y="1382" name="hat"/>
  <anchor x="336" y="1322" name="hat.left"/>
  <anchor x="627" y="1154" name="he.acute.top"/>
  <anchor x="299" y="560" name="he.left.inner"/>
  <anchor x="114" y="634" name="he.left.outer"/>
  <anchor x="726" y="60" name="hee"/>
  <anchor x="880" y="110" name="hi"/>
  <anchor x="93" y="10" name="ho"/>
  <anchor x="983" y="673" name="hu"/>
  <anchor x="773" y="-24" name="hwa"/>
  <anchor x="598" y="1040" name="ka"/>
  <anchor x="655" y="1114" name="neck"/>
  <outline>
    <contour>
      <point x="9" y="0" type="line"/>
      <point x="194" y="0" type="line"/>
      <point x="320" y="716" type="line" smooth="yes"/>
      <point x="346" y="862"/>
      <point x="463" y="945"/>
      <point x="625" y="945" type="curve" smooth="yes"/>
      <point x="773" y="945"/>
      <point x="828" y="872"/>
      <point x="801" y="716" type="curve" smooth="yes"/>
      <point x="675" y="0" type="line"/>
      <point x="860" y="0" type="line"/>
      <point x="986" y="715" type="line" smooth="yes"/>
      <point x="1031" y="973"/>
      <point x="876" y="1102"/>
      <point x="647" y="1102" type="curve" smooth="yes"/>
      <point x="383" y="1102"/>
      <point x="178" y="957"/>
      <point x="141" y="748" type="curve" smooth="yes"/>
    </contour>
  </outline>
</glyph>
<glyph name="eGlottal-ethiopic.liga" format="2">
  <advance width="1304"/>
  <anchor x="1014" y="-42" name="haa"/>
  <anchor x="342" y="1677" name="hat"/>
  <anchor x="342" y="1677" name="hat.left"/>
  <anchor x="925" y="-1" name="hee"/>
  <anchor x="-84" y="-32" name="ho"/>
  <anchor x="843" y="965" name="hu"/>
  <anchor x="956" y="-41" name="hwa"/>
  <anchor x="1089" y="0" name="ni"/>
  <outline>
    <contour>
      <point x="75" y="1737" type="line"/>
      <point x="137" y="1446" type="line"/>
      <point x="260" y="1496" type="line"/>
      <point x="198" y="1787" type="line"/>
    </contour>
    <component base="aGl.base.cap"/>
  </outline>
</glyph>
<glyph name="eight.frac0" format="2">
  <advance width="751"/>
  <note>
glyph00548
</note>
  <outline>
    <contour>
      <point x="182" y="-11" type="curve" smooth="yes"/>
      <point x="364" y="-11"/>
      <point x="493" y="75"/>
      <point x="518" y="216" type="curve" smooth="yes"/>
      <point x="534" y="303"/>
      <point x="499" y="367"/>
      <point x="413" y="406" type="curve"/>
      <point x="499" y="443"/>
      <point x="548" y="500"/>
      <point x="562" y="579" type="curve" smooth="yes"/>
      <point x="587" y="716"/>
      <point x="492" y="800"/>
      <point x="324" y="800" type="curve" smooth="yes"/>
      <point x="158" y="800"/>
      <point x="34" y="716"/>
      <point x="9" y="579" type="curve" smooth="yes"/>
      <point x="-5" y="500"/>
      <point x="25" y="443"/>
      <point x="98" y="406" type="curve"/>
      <point x="6" y="370"/>
      <point x="-58" y="304"/>
      <point x="-74" y="216" type="curve" smooth="yes"/>
      <point x="-99" y="75"/>
      <point x="1" y="-11"/>
    </contour>
    <contour>
      <point x="205" y="117" type="curve" smooth="yes"/>
      <point x="121" y="117"/>
      <point x="73" y="157"/>
      <point x="85" y="228" type="curve" smooth="yes"/>
      <point x="98" y="297"/>
      <point x="159" y="338"/>
      <point x="243" y="338" type="curve" smooth="yes"/>
      <point x="325" y="338"/>
      <point x="376" y="297"/>
      <point x="363" y="228" type="curve" smooth="yes"/>
      <point x="351" y="157"/>
      <point x="289" y="117"/>
    </contour>
    <contour>
      <point x="267" y="468" type="curve" smooth="yes"/>
      <point x="192" y="468"/>
      <point x="155" y="509"/>
      <point x="166" y="570" type="curve" smooth="yes"/>
      <point x="177" y="634"/>
      <point x="228" y="671"/>
      <point x="302" y="671" type="curve" smooth="yes"/>
      <point x="376" y="671"/>
      <point x="415" y="631"/>
      <point x="404" y="570" type="curve" smooth="yes"/>
      <point x="393" y="509"/>
      <point x="341" y="468"/>
    </contour>
  </outline>
</glyph>
<glyph name="fi.liga" format="2">
  <advance width="1134"/>
  <note>
uniFB01
</note>
  <outline>
    <contour>
      <point x="11" y="0" type="line"/>
      <point x="197" y="0" type="line"/>
      <point x="363" y="939" type="line"/>
      <point x="584" y="939" type="line"/>
      <point x="609" y="1082" type="line"/>
      <point x="388" y="1082" type="line"/>
      <point x="405" y="1176" type="line" smooth="yes"/>
      <point x="430" y="1319"/>
      <point x="508" y="1390"/>
      <point x="666" y="1390" type="curve" smooth="yes"/>
      <point x="742" y="1390"/>
      <point x="818" y="1373"/>
      <point x="895" y="1340" type="curve"/>
      <point x="954" y="1496" type="line"/>
      <point x="847" y="1537"/>
      <point x="756" y="1557"/>
      <point x="682" y="1557" type="curve" smooth="yes"/>
      <point x="430" y="1557"/>
      <point x="261" y="1415"/>
      <point x="218" y="1174" type="curve" smooth="yes"/>
      <point x="202" y="1082" type="line"/>
      <point x="31" y="1082" type="line"/>
      <point x="6" y="939" type="line"/>
      <point x="177" y="939" type="line"/>
    </contour>
    <contour>
      <point x="596" y="0" type="line"/>
      <point x="782" y="0" type="line"/>
      <point x="973" y="1082" type="line"/>
      <point x="787" y="1082" type="line"/>
    </contour>
  </outline>
</glyph>
<glyph name="ga.base" format="2">
  <advance width="918"/>
  <anchor x="695" y="10" name="haa"/>
  <anchor x="461" y="-44" name="haa.acute"/>
  <anchor x="400" y="1367" name="hat"/>
  <anchor x="333" y="1316" name="hat.left"/>
  <anchor x="513" y="569" name="he.left.outer"/>
  <anchor x="528" y="40" name="hee"/>
  <anchor x="609" y="110" name="hi"/>
  <anchor x="446" y="691" name="ho.ring"/>
  <anchor x="193" y="1422" name="ho.ring.uniq"/>
  <anchor x="704" y="638" name="hu"/>
  <anchor x="503" y="0" name="hwa"/>
  <anchor x="390" y="1082" name="neck"/>
  <anchor x="169" y="1008" name="neck.left"/>
  <anchor x="104" y="1305" name="nose"/>
  <anchor x="452" y="1110" name="ring"/>
  <anchor x="501" y="1" name="xwaa"/>
  <outline>
    <contour>
      <point x="401" y="0" type="line"/>
      <point x="587" y="0" type="line"/>
      <point x="686" y="558" type="line" smooth="yes"/>
      <point x="746" y="895"/>
      <point x="646" y="1083"/>
      <point x="400" y="1102" type="curve" smooth="yes"/>
      <point x="295" y="1110"/>
      <point x="158" y="1050"/>
      <point x="87" y="1008" type="curve"/>
      <point x="244" y="944" type="line"/>
      <point x="267" y="955"/>
      <point x="303" y="966"/>
      <point x="375" y="961" type="curve" smooth="yes"/>
      <point x="545" y="949"/>
      <point x="545" y="812"/>
      <point x="501" y="565" type="curve" smooth="yes"/>
    </contour>
  </outline>
</glyph>
<glyph name="ha.base" format="2">
  <advance width="1249"/>
  <anchor x="577" y="20" name="haa"/>
  <anchor x="140" y="782" name="he"/>
  <anchor x="327" y="783" name="he.left.inner"/>
  <anchor x="747" y="0" name="hee"/>
  <anchor x="607" y="-221" name="hi"/>
  <anchor x="1140" y="1128" name="ho.ring"/>
  <anchor x="949" y="690" name="hu"/>
  <anchor x="757" y="0" name="hwa"/>
  <outline>
    <contour>
      <point x="446" y="-20" type="curve" smooth="yes"/>
      <point x="675" y="-20"/>
      <point x="877" y="109"/>
      <point x="922" y="367" type="curve" smooth="yes"/>
      <point x="1048" y="1082" type="line"/>
      <point x="863" y="1082" type="line"/>
      <point x="737" y="366" type="line" smooth="yes"/>
      <point x="710" y="210"/>
      <point x="627" y="137"/>
      <point x="479" y="137" type="curve" smooth="yes"/>
      <point x="317" y="137"/>
      <point x="230" y="220"/>
      <point x="256" y="366" type="curve" smooth="yes"/>
      <point x="382" y="1082" type="line"/>
      <point x="197" y="1082" type="line"/>
      <point x="65" y="334" type="line" smooth="yes"/>
      <point x="28" y="125"/>
      <point x="182" y="-20"/>
    </contour>
  </outline>
</glyph>
<glyph name="hha.base.cap" format="2">
  <advance width="1788"/>
  <anchor x="690" y="85" name="cha.caps"/>
  <anchor x="1356" y="-50" name="haa"/>
  <anchor x="895" y="6" name="haa.acute"/>
  <anchor x="766" y="1420" name="he.acute.top"/>
  <anchor x="1302" y="54" name="hee"/>
  <anchor x="1452" y="110" name="hi"/>
  <anchor x="54" y="-48" name="ho"/>
  <anchor x="1622" y="1081" name="hu"/>
  <anchor x="1325" y="-48" name="hwa"/>
  <anchor x="990" y="832" name="neck.hha.caps"/>
  <outline>
    <contour>
      <point x="-22" y="0" type="line"/>
      <point x="170" y="0" type="line"/>
      <point x="359" y="1176" type="line"/>
      <point x="628" y="0" type="line"/>
      <point x="775" y="0" type="line"/>
      <point x="1461" y="1179" type="line"/>
      <point x="1235" y="0" type="line"/>
      <point x="1427" y="0" type="line"/>
      <point x="1684" y="1456" type="line"/>
      <point x="1435" y="1456" type="line"/>
      <point x="749" y="268" type="line"/>
      <point x="483" y="1456" type="line"/>
      <point x="235" y="1456" type="line"/>
    </contour>
  </outline>
</glyph>
<glyph name="hha.base" format="2">
  <advance width="1775"/>
  <anchor x="680" y="7" name="cha"/>
  <anchor x="1378" y="-30" name="haa"/>
  <anchor x="1566" y="663" name="he"/>
  <anchor x="776" y="-3" name="he.acute.bottom"/>
  <anchor x="690" y="1159" name="he.acute.top"/>
  <anchor x="1319" y="-72" name="hee"/>
  <anchor x="1465" y="110" name="hi"/>
  <anchor x="30" y="-2" name="ho"/>
  <anchor x="1566" y="663" name="hu"/>
  <anchor x="1350" y="-30" name="hwa"/>
  <anchor x="878" y="1106" name="neck"/>
  <outline>
    <contour>
      <point x="-52" y="0" type="line"/>
      <point x="133" y="0" type="line"/>
      <point x="258" y="709" type="line" smooth="yes"/>
      <point x="290" y="893"/>
      <point x="412" y="945"/>
      <point x="529" y="945" type="curve" smooth="yes"/>
      <point x="683" y="945"/>
      <point x="746" y="866"/>
      <point x="718" y="709" type="curve" smooth="yes"/>
      <point x="593" y="0" type="line"/>
      <point x="779" y="0" type="line"/>
      <point x="906" y="718" type="line" smooth="yes"/>
      <point x="931" y="858"/>
      <point x="1059" y="945"/>
      <point x="1196" y="945" type="curve" smooth="yes"/>
      <point x="1363" y="945"/>
      <point x="1413" y="869"/>
      <point x="1386" y="714" type="curve" smooth="yes"/>
      <point x="1260" y="0" type="line"/>
      <point x="1445" y="0" type="line"/>
      <point x="1573" y="725" type="line" smooth="yes"/>
      <point x="1617" y="976"/>
      <point x="1515" y="1102"/>
      <point x="1278" y="1102" type="curve" smooth="yes"/>
      <point x="1121" y="1102"/>
      <point x="955" y="1010"/>
      <point x="858" y="927" type="curve"/>
      <point x="794" y="1010"/>
      <point x="750" y="1101"/>
      <point x="534" y="1102" type="curve" smooth="yes"/>
      <point x="357" y="1103"/>
      <point x="119" y="968"/>
      <point x="73" y="709" type="curve" smooth="yes"/>
    </contour>
  </outline>
</glyph>
<glyph name="ma.base" format="2">
  <advance width="1798"/>
  <anchor x="1355" y="0" name="haa"/>
  <anchor x="559" y="-101" name="he.acute.bottom"/>
  <anchor x="1276" y="0" name="hee"/>
  <anchor x="1354" y="-274" name="hi"/>
  <anchor x="529" y="0" name="ho"/>
  <anchor x="1588" y="661" name="hu"/>
  <anchor x="1360" y="0" name="hwa"/>
  <outline>
    <contour>
      <point x="103" y="0" type="curve" smooth="yes"/>
      <point x="371" y="0" type="line" smooth="yes"/>
      <point x="574" y="0"/>
      <point x="611" y="133"/>
      <point x="630" y="240" type="curve" smooth="yes"/>
      <point x="725" y="784" type="line" smooth="yes"/>
      <point x="741" y="872"/>
      <point x="953" y="888"/>
      <point x="935" y="789" type="curve" smooth="yes"/>
      <point x="837" y="234" type="line" smooth="yes"/>
      <point x="819" y="128"/>
      <point x="827" y="0"/>
      <point x="1039" y="0" type="curve" smooth="yes"/>
      <point x="1298" y="0" type="line" smooth="yes"/>
      <point x="1386" y="0"/>
      <point x="1479" y="68"/>
      <point x="1497" y="169" type="curve" smooth="yes"/>
      <point x="1595" y="725" type="line" smooth="yes"/>
      <point x="1639" y="976"/>
      <point x="1582" y="1102"/>
      <point x="1340" y="1102" type="curve" smooth="yes"/>
      <point x="1143" y="1102"/>
      <point x="1048" y="1075"/>
      <point x="961" y="979" type="curve"/>
      <point x="758" y="976" type="line"/>
      <point x="708" y="1067"/>
      <point x="650" y="1100"/>
      <point x="517" y="1102" type="curve" smooth="yes"/>
      <point x="179" y="1107"/>
      <point x="120" y="967"/>
      <point x="90" y="800" type="curve" smooth="yes"/>
      <point x="-22" y="166" type="line" smooth="yes"/>
      <point x="-45" y="33"/>
      <point x="30" y="0"/>
    </contour>
    <contour>
      <point x="160" y="141" type="line"/>
      <point x="262" y="718" type="line" smooth="yes"/>
      <point x="294" y="902"/>
      <point x="303" y="946"/>
      <point x="481" y="946" type="curve" smooth="yes"/>
      <point x="591" y="946"/>
      <point x="606" y="875"/>
      <point x="578" y="718" type="curve" smooth="yes"/>
      <point x="509" y="329" type="line" smooth="yes"/>
      <point x="482" y="177"/>
      <point x="466" y="141"/>
      <point x="271" y="141" type="curve" smooth="yes"/>
    </contour>
    <contour>
      <point x="1310" y="141" type="line"/>
      <point x="1192" y="141" type="line" smooth="yes"/>
      <point x="998" y="141"/>
      <point x="989" y="192"/>
      <point x="1019" y="361" type="curve" smooth="yes"/>
      <point x="1082" y="718" type="line" smooth="yes"/>
      <point x="1115" y="904"/>
      <point x="1142" y="946"/>
      <point x="1268" y="946" type="curve" smooth="yes"/>
      <point x="1435" y="946"/>
      <point x="1440" y="879"/>
      <point x="1412" y="718" type="curve" smooth="yes"/>
    </contour>
  </outline>
</glyph>
<glyph name="na.base.cap" format="2">
  <advance width="1129"/>
  <anchor x="639" y="138" name="fa"/>
  <anchor x="816" y="-17" name="haa"/>
  <anchor x="622" y="1278" name="hat"/>
  <anchor x="1089" y="1554" name="hat.caps"/>
  <anchor x="109" y="815" name="he.left"/>
  <anchor x="1401" y="1125" name="ho.ring"/>
  <anchor x="802" y="-20" name="hwa"/>
  <anchor x="327" y="1451" name="nose"/>
  <outline>
    <contour>
      <point x="493" y="-22" type="curve" smooth="yes"/>
      <point x="879" y="-22" type="line"/>
      <point x="907" y="136" type="line"/>
      <point x="521" y="136" type="line" smooth="yes"/>
      <point x="285" y="138"/>
      <point x="181" y="338"/>
      <point x="261" y="795" type="curve" smooth="yes"/>
      <point x="319" y="1123"/>
      <point x="494" y="1311"/>
      <point x="733" y="1318" type="curve"/>
      <point x="1116" y="1318" type="line"/>
      <point x="1143" y="1476" type="line"/>
      <point x="757" y="1476" type="line" smooth="yes"/>
      <point x="387" y="1475"/>
      <point x="135" y="1175"/>
      <point x="69" y="800" type="curve" smooth="yes"/>
      <point x="-28" y="247"/>
      <point x="149" y="-22"/>
    </contour>
  </outline>
</glyph>
<glyph name="na.base" format="2">
  <advance width="958"/>
  <anchor x="439" y="101" name="fa"/>
  <anchor x="657" y="-17" name="haa"/>
  <anchor x="265" y="-11" name="haa.acute"/>
  <anchor x="504" y="1278" name="hat"/>
  <anchor x="467" y="961" name="hat.left"/>
  <anchor x="-19" y="815" name="he.left"/>
  <anchor x="-86" y="568" name="he.left.outer"/>
  <anchor x="901" y="759" name="hee"/>
  <anchor x="986" y="860" name="ho.ring"/>
  <anchor x="628" y="-20" name="hwa"/>
  <outline>
    <contour>
      <point x="343" y="-20" type="curve" smooth="yes"/>
      <point x="545" y="-22"/>
      <point x="615" y="-30"/>
      <point x="716" y="-32" type="curve"/>
      <point x="736" y="119" type="line"/>
      <point x="649" y="118"/>
      <point x="451" y="127"/>
      <point x="370" y="131" type="curve" smooth="yes"/>
      <point x="220" y="138"/>
      <point x="195" y="255"/>
      <point x="241" y="517" type="curve" smooth="yes"/>
      <point x="340" y="1082" type="line"/>
      <point x="155" y="1082" type="line"/>
      <point x="57" y="524" type="line" smooth="yes"/>
      <point x="-2" y="187"/>
      <point x="50" y="-17"/>
    </contour>
  </outline>
</glyph>
<glyph name="oPh.base.cap" format="2">
  <advance width="1408"/>
  <anchor x="708" y="0" name="haa"/>
  <anchor x="387" y="-22" name="haa.acute"/>
  <anchor x="689" y="-39" name="hee"/>
  <anchor x="728" y="-242" name="hi"/>
  <anchor x="1267" y="971" name="hu"/>
  <anchor x="692" y="0" name="hwa"/>
  <anchor x="749" y="1401" name="neck"/>
  <anchor x="405" y="550" name="tsa.belt"/>
  <anchor x="595" y="757" name="tsa.belt.caps"/>
  <outline>
    <contour>
      <point x="511" y="-20" type="curve" smooth="yes"/>
      <point x="745" y="-20"/>
      <point x="947" y="95"/>
      <point x="1080" y="308" type="curve" smooth="yes"/>
      <point x="1147" y="414"/>
      <point x="1193" y="538"/>
      <point x="1235" y="773" type="curve" smooth="yes"/>
      <point x="1305" y="1173"/>
      <point x="1155" y="1476"/>
      <point x="772" y="1476" type="curve" smooth="yes"/>
      <point x="386" y="1476"/>
      <point x="132" y="1159"/>
      <point x="64" y="773" type="curve" smooth="yes"/>
      <point x="11" y="476"/>
      <point x="34" y="313"/>
      <point x="104" y="193" type="curve" smooth="yes"/>
      <point x="186" y="54"/>
      <point x="328" y="-20"/>
    </contour>
    <contour>
      <point x="539" y="143" type="curve" smooth="yes"/>
      <point x="293" y="143"/>
      <point x="179" y="346"/>
      <point x="257" y="788" type="curve" smooth="yes"/>
      <point x="315" y="1116"/>
      <point x="501" y="1311"/>
      <point x="743" y="1311" type="curve" smooth="yes"/>
      <point x="993" y="1311"/>
      <point x="1105" y="1120"/>
      <point x="1044" y="775" type="curve" smooth="yes"/>
      <point x="965" y="330"/>
      <point x="787" y="143"/>
    </contour>
  </outline>
</glyph>
<glyph name="oPh.base" format="2">
  <advance width="1289"/>
  <anchor x="696" y="0" name="haa"/>
  <anchor x="447" y="-22" name="haa.acute"/>
  <anchor x="718" y="-39" name="hee"/>
  <anchor x="706" y="-242" name="hi"/>
  <anchor x="1017" y="671" name="hu"/>
  <anchor x="721" y="0" name="hwa"/>
  <anchor x="634" y="1101" name="neck"/>
  <anchor x="528" y="550" name="tsa.belt"/>
  <outline>
    <contour>
      <point x="450" y="-20" type="curve" smooth="yes"/>
      <point x="644" y="-20"/>
      <point x="818" y="78"/>
      <point x="928" y="246" type="curve" smooth="yes"/>
      <point x="983" y="329"/>
      <point x="1020" y="424"/>
      <point x="1038" y="529" type="curve" smooth="yes"/>
      <point x="1041" y="542" type="line" smooth="yes"/>
      <point x="1100" y="881"/>
      <point x="940" y="1102"/>
      <point x="646" y="1102" type="curve" smooth="yes"/>
      <point x="455" y="1102"/>
      <point x="283" y="1006"/>
      <point x="170" y="837" type="curve" smooth="yes"/>
      <point x="114" y="752"/>
      <point x="76" y="657"/>
      <point x="57" y="551" type="curve" smooth="yes"/>
      <point x="55" y="538" type="line" smooth="yes"/>
      <point x="-4" y="202"/>
      <point x="156" y="-20"/>
    </contour>
    <contour>
      <point x="476" y="131" type="curve" smooth="yes"/>
      <point x="290" y="131"/>
      <point x="197" y="289"/>
      <point x="239" y="529" type="curve" smooth="yes"/>
      <point x="287" y="800"/>
      <point x="436" y="950"/>
      <point x="619" y="950" type="curve" smooth="yes"/>
      <point x="805" y="950"/>
      <point x="899" y="788"/>
      <point x="857" y="551" type="curve" smooth="yes"/>
      <point x="811" y="286"/>
      <point x="664" y="131"/>
    </contour>
  </outline>
</glyph>
<glyph name="pa.base" format="2">
  <advance width="664"/>
  <anchor x="309" y="42" name="haa"/>
  <anchor x="79" y="0" name="haa.acute"/>
  <anchor x="327" y="1339" name="hat"/>
  <anchor x="290" y="1167" name="he.acute.top"/>
  <anchor x="147" y="40" name="hee"/>
  <anchor x="233" y="110" name="hi"/>
  <anchor x="583" y="1274" name="ho.ring"/>
  <anchor x="320" y="669" name="hu"/>
  <anchor x="103" y="-40" name="hwa"/>
  <anchor x="293" y="1082" name="neck"/>
  <outline>
    <contour>
      <point x="15" y="0" type="line"/>
      <point x="200" y="0" type="line"/>
      <point x="366" y="939" type="line"/>
      <point x="568" y="939" type="line"/>
      <point x="593" y="1082" type="line"/>
      <point x="9" y="1082" type="line"/>
      <point x="-16" y="939" type="line"/>
      <point x="181" y="939" type="line"/>
    </contour>
  </outline>
</glyph>
<glyph name="pe-ethiopic.liga" format="2">
  <advance width="1222"/>
  <anchor x="600" y="15" name="haa"/>
  <anchor x="401" y="16" name="haa.acute"/>
  <anchor x="971" y="1636" name="hat.caps"/>
  <anchor x="655" y="1511" name="he.acute.top"/>
  <anchor x="462" y="52" name="hee"/>
  <anchor x="528" y="114" name="hi"/>
  <anchor x="945" y="1521" name="ho.ring"/>
  <anchor x="691" y="983" name="hu"/>
  <anchor x="416" y="-52" name="hwa"/>
  <anchor x="680" y="1532" name="neck.caps"/>
  <outline>
    <contour>
      <point x="491" y="-375" type="line"/>
      <point x="634" y="-375" type="line"/>
      <point x="731" y="304" type="line"/>
      <point x="588" y="304" type="line"/>
    </contour>
    <component base="pa.base.cap"/>
  </outline>
</glyph>
<glyph name="ra.base.cap" format="2">
  <advance width="1102"/>
  <anchor x="598" y="151" name="fa"/>
  <anchor x="556" y="3" name="haa"/>
  <anchor x="481" y="-5" name="haa.acute"/>
  <anchor x="365" y="1360" name="hat.left"/>
  <anchor x="895" y="80" name="hee"/>
  <outline>
    <contour>
      <point x="-22" y="0" type="line"/>
      <point x="861" y="0" type="line"/>
      <point x="889" y="157" type="line"/>
      <point x="199" y="157" type="line"/>
      <point x="428" y="1456" type="line"/>
      <point x="235" y="1456" type="line"/>
    </contour>
  </outline>
</glyph>
<glyph name="ra.base" format="2">
  <advance width="1046"/>
  <anchor x="538" y="101" name="fa"/>
  <anchor x="389" y="-13" name="haa"/>
  <anchor x="364" y="-11" name="haa.acute"/>
  <anchor x="561" y="961" name="hat"/>
  <anchor x="1000" y="759" name="hee"/>
  <anchor x="842" y="830" name="ho.ring"/>
  <anchor x="474" y="4" name="hwa"/>
  <outline>
    <contour>
      <point x="343" y="-20" type="curve" smooth="yes"/>
      <point x="545" y="-20"/>
      <point x="772" y="127"/>
      <point x="878" y="295" type="curve"/>
      <point x="770" y="295" type="line"/>
      <point x="704" y="205"/>
      <point x="501" y="131"/>
      <point x="369" y="131" type="curve" smooth="yes"/>
      <point x="218" y="131"/>
      <point x="194" y="255"/>
      <point x="240" y="517" type="curve" smooth="yes"/>
      <point x="340" y="1082" type="line"/>
      <point x="155" y="1082" type="line"/>
      <point x="57" y="524" type="line" smooth="yes"/>
      <point x="-3" y="187"/>
      <point x="50" y="-20"/>
    </contour>
  </outline>
</glyph>
<glyph name="sa.base" format="2">
  <advance width="1775"/>
  <anchor x="1328" y="0" name="haa"/>
  <anchor x="609" y="-94" name="he.acute.bottom"/>
  <anchor x="1314" y="0" name="hee"/>
  <anchor x="1331" y="-251" name="hi"/>
  <anchor x="69" y="5" name="ho"/>
  <anchor x="1565" y="701" name="hu"/>
  <anchor x="1346" y="0" name="hwa"/>
  <outline>
    <contour>
      <point x="305" y="-20" type="curve" smooth="yes"/>
      <point x="462" y="-20"/>
      <point x="590" y="50"/>
      <point x="680" y="154" type="curve"/>
      <point x="755" y="38"/>
      <point x="812" y="-25"/>
      <point x="1049" y="-20" type="curve" smooth="yes"/>
      <point x="1226" y="-16"/>
      <point x="1467" y="114"/>
      <point x="1509" y="373" type="curve" smooth="yes"/>
      <point x="1624" y="1082" type="line"/>
      <point x="1439" y="1082" type="line"/>
      <point x="1324" y="373" type="line" smooth="yes"/>
      <point x="1295" y="189"/>
      <point x="1170" y="137"/>
      <point x="1053" y="137" type="curve" smooth="yes"/>
      <point x="899" y="137"/>
      <point x="836" y="216"/>
      <point x="864" y="373" type="curve" smooth="yes"/>
      <point x="989" y="1082" type="line"/>
      <point x="803" y="1082" type="line"/>
      <point x="676" y="364" type="line" smooth="yes"/>
      <point x="652" y="224"/>
      <point x="523" y="137"/>
      <point x="386" y="137" type="curve" smooth="yes"/>
      <point x="219" y="137"/>
      <point x="169" y="213"/>
      <point x="196" y="368" type="curve" smooth="yes"/>
      <point x="322" y="1082" type="line"/>
      <point x="137" y="1082" type="line"/>
      <point x="9" y="357" type="line" smooth="yes"/>
      <point x="-35" y="106"/>
      <point x="68" y="-20"/>
    </contour>
  </outline>
</glyph>
<glyph name="six.frac0" format="2">
  <advance width="751"/>
  <note>
glyph00546
</note>
  <outline>
    <contour>
      <point x="199" y="-11" type="curve" smooth="yes"/>
      <point x="375" y="-11"/>
      <point x="511" y="104"/>
      <point x="538" y="259" type="curve" smooth="yes"/>
      <point x="566" y="418"/>
      <point x="489" y="523"/>
      <point x="331" y="523" type="curve" smooth="yes"/>
      <point x="255" y="523"/>
      <point x="189" y="497"/>
      <point x="132" y="446" type="curve"/>
      <point x="173" y="592"/>
      <point x="283" y="666"/>
      <point x="479" y="667" type="curve"/>
      <point x="502" y="798" type="line"/>
      <point x="188" y="791"/>
      <point x="7" y="634"/>
      <point x="-42" y="357" type="curve" smooth="yes"/>
      <point x="-51" y="306" type="line" smooth="yes"/>
      <point x="-86" y="105"/>
      <point x="14" y="-11"/>
    </contour>
    <contour>
      <point x="218" y="117" type="curve" smooth="yes"/>
      <point x="134" y="117"/>
      <point x="82" y="174"/>
      <point x="102" y="286" type="curve" smooth="yes"/>
      <point x="108" y="320" type="line"/>
      <point x="138" y="363"/>
      <point x="198" y="396"/>
      <point x="266" y="396" type="curve" smooth="yes"/>
      <point x="358" y="396"/>
      <point x="396" y="341"/>
      <point x="382" y="258" type="curve" smooth="yes"/>
      <point x="367" y="175"/>
      <point x="299" y="117"/>
    </contour>
  </outline>
</glyph>
<glyph name="tsa.base" format="2">
  <advance width="1028"/>
  <anchor x="669" y="-29" name="haa"/>
  <anchor x="554" y="1353" name="hat"/>
  <anchor x="1087" y="788" name="he"/>
  <anchor x="610" y="50" name="hee"/>
  <anchor x="706" y="110" name="hi"/>
  <anchor x="-12" y="1" name="ho"/>
  <anchor x="732" y="459" name="hu"/>
  <anchor x="641" y="-30" name="hwa"/>
  <anchor x="523" y="1105" name="neck"/>
  <outline>
    <contour>
      <point x="-95" y="0" type="line"/>
      <point x="90" y="0" type="line"/>
      <point x="141" y="290" type="line" smooth="yes"/>
      <point x="158" y="385"/>
      <point x="235" y="508"/>
      <point x="405" y="508" type="curve" smooth="yes"/>
      <point x="581" y="508"/>
      <point x="619" y="384"/>
      <point x="602" y="287" type="curve" smooth="yes"/>
      <point x="551" y="0" type="line"/>
      <point x="736" y="0" type="line"/>
      <point x="789" y="300" type="line" smooth="yes"/>
      <point x="810" y="416"/>
      <point x="771" y="494"/>
      <point x="666" y="551" type="curve"/>
      <point x="785" y="608"/>
      <point x="849" y="683"/>
      <point x="867" y="788" type="curve" smooth="yes"/>
      <point x="898" y="965"/>
      <point x="756" y="1105"/>
      <point x="523" y="1105" type="curve" smooth="yes"/>
      <point x="318" y="1105"/>
      <point x="90" y="990"/>
      <point x="54" y="785" type="curve" smooth="yes"/>
      <point x="34" y="676"/>
      <point x="77" y="605"/>
      <point x="166" y="551" type="curve"/>
      <point x="45" y="494"/>
      <point x="-21" y="417"/>
      <point x="-41" y="303" type="curve" smooth="yes"/>
    </contour>
    <contour>
      <point x="427" y="632" type="curve" smooth="yes"/>
      <point x="293" y="632"/>
      <point x="223" y="693"/>
      <point x="237" y="772" type="curve" smooth="yes"/>
      <point x="255" y="872"/>
      <point x="369" y="950"/>
      <point x="483" y="950" type="curve" smooth="yes"/>
      <point x="610" y="950"/>
      <point x="696" y="870"/>
      <point x="679" y="774" type="curve" smooth="yes"/>
      <point x="665" y="698"/>
      <point x="589" y="632"/>
    </contour>
  </outline>
</glyph>
<glyph name="two.frac0" format="2">
  <advance width="751"/>
  <note>
glyph00453
</note>
  <outline>
    <contour>
      <point x="-107" y="0" type="line"/>
      <point x="492" y="0" type="line"/>
      <point x="515" y="128" type="line"/>
      <point x="116" y="128" type="line"/>
      <point x="415" y="352" type="line" smooth="yes"/>
      <point x="499" y="423"/>
      <point x="547" y="494"/>
      <point x="559" y="563" type="curve" smooth="yes"/>
      <point x="585" y="710"/>
      <point x="491" y="800"/>
      <point x="315" y="800" type="curve" smooth="yes"/>
      <point x="139" y="800"/>
      <point x="-3" y="690"/>
      <point x="-30" y="538" type="curve"/>
      <point x="127" y="538" type="line"/>
      <point x="140" y="614"/>
      <point x="197" y="671"/>
      <point x="297" y="671" type="curve" smooth="yes"/>
      <point x="377" y="671"/>
      <point x="413" y="626"/>
      <point x="401" y="561" type="curve" smooth="yes"/>
      <point x="393" y="515"/>
      <point x="347" y="458"/>
      <point x="262" y="390" type="curve" smooth="yes"/>
      <point x="-88" y="108" type="line"/>
    </contour>
  </outline>
</glyph>
<glyph name="wa.base" format="2">
  <advance width="1535"/>
  <anchor x="580" y="0" name="haa"/>
  <anchor x="475" y="-130" name="haa.acute"/>
  <anchor x="808" y="1363" name="hat"/>
  <anchor x="792" y="1232" name="he.acute.top"/>
  <anchor x="629" y="0" name="hee"/>
  <anchor x="570" y="-239" name="hi"/>
  <anchor x="988" y="1150" name="ho.ring"/>
  <anchor x="1355" y="743" name="hu"/>
  <anchor x="560" y="0" name="hwa"/>
  <anchor x="773" y="1082" name="neck"/>
  <outline>
    <contour>
      <point x="326" y="-20" type="curve" smooth="yes"/>
      <point x="380" y="-20"/>
      <point x="428" y="-16"/>
      <point x="475" y="0" type="curve"/>
      <point x="690" y="0" type="line"/>
      <point x="728" y="-13"/>
      <point x="771" y="-20"/>
      <point x="821" y="-20" type="curve" smooth="yes"/>
      <point x="1072" y="-20"/>
      <point x="1285" y="205"/>
      <point x="1346" y="550" type="curve" smooth="yes"/>
      <point x="1405" y="882"/>
      <point x="1272" y="1102"/>
      <point x="1017" y="1102" type="curve" smooth="yes"/>
      <point x="967" y="1102"/>
      <point x="920" y="1095"/>
      <point x="877" y="1082" type="curve"/>
      <point x="666" y="1082" type="line"/>
      <point x="626" y="1097"/>
      <point x="579" y="1102"/>
      <point x="526" y="1102" type="curve" smooth="yes"/>
      <point x="271" y="1102"/>
      <point x="60" y="882"/>
      <point x="-1" y="536" type="curve" smooth="yes"/>
      <point x="-60" y="205"/>
      <point x="75" y="-20"/>
    </contour>
    <contour>
      <point x="399" y="137" type="curve" smooth="yes"/>
      <point x="220" y="137"/>
      <point x="139" y="284"/>
      <point x="182" y="529" type="curve" smooth="yes"/>
      <point x="231" y="804"/>
      <point x="363" y="945"/>
      <point x="544" y="945" type="curve" smooth="yes"/>
      <point x="579" y="945"/>
      <point x="631" y="940"/>
      <point x="659" y="931" type="curve"/>
      <point x="524" y="163" type="line"/>
      <point x="488" y="147"/>
      <point x="432" y="137"/>
    </contour>
    <contour>
      <point x="761" y="137" type="curve" smooth="yes"/>
      <point x="744" y="135"/>
      <point x="711" y="151"/>
      <point x="696" y="156" type="curve"/>
      <point x="834" y="942" type="line"/>
      <point x="873" y="944"/>
      <point x="908" y="942"/>
      <point x="940" y="936" type="curve" smooth="yes"/>
      <point x="1118" y="904"/>
      <point x="1199" y="762"/>
      <point x="1157" y="529" type="curve" smooth="yes"/>
      <point x="1114" y="284"/>
      <point x="943" y="158"/>
    </contour>
  </outline>
</glyph>
<glyph name="ya.base" format="2">
  <advance width="1180"/>
  <anchor x="-145" y="154" name="da"/>
  <anchor x="560" y="-139" name="di"/>
  <anchor x="568" y="234" name="du"/>
  <anchor x="588" y="0" name="haa"/>
  <anchor x="54" y="-16" name="haa.acute"/>
  <anchor x="493" y="1341" name="hat"/>
  <anchor x="1173" y="756" name="he"/>
  <anchor x="400" y="1080" name="he.left.outer"/>
  <anchor x="442" y="40" name="hee"/>
  <anchor x="656" y="11" name="hha"/>
  <anchor x="467" y="-270" name="hi"/>
  <anchor x="-48" y="0" name="ho"/>
  <anchor x="512" y="309" name="hu"/>
  <anchor x="557" y="0" name="hwa"/>
  <anchor x="489" y="1112" name="neck"/>
  <anchor x="29" y="74" name="ye"/>
  <outline>
    <contour>
      <point x="-35" y="0" type="line"/>
      <point x="150" y="0" type="line"/>
      <point x="236" y="488" type="line"/>
      <point x="810" y="488" type="line" smooth="yes"/>
      <point x="861" y="488"/>
      <point x="905" y="519"/>
      <point x="919" y="565" type="curve" smooth="yes"/>
      <point x="1024" y="907"/>
      <point x="910" y="1102"/>
      <point x="629" y="1102" type="curve" smooth="yes"/>
      <point x="457" y="1102"/>
      <point x="282" y="1001"/>
      <point x="171" y="833" type="curve" smooth="yes"/>
      <point x="115" y="748"/>
      <point x="76" y="652"/>
      <point x="58" y="545" type="curve" smooth="yes"/>
    </contour>
    <contour>
      <point x="264" y="630" type="line"/>
      <point x="324" y="836"/>
      <point x="453" y="950"/>
      <point x="602" y="950" type="curve" smooth="yes"/>
      <point x="777" y="950"/>
      <point x="820" y="832"/>
      <point x="765" y="630" type="curve"/>
    </contour>
  </outline>
</glyph>
<glyph name="ye-ethiopic.liga" format="2">
  <advance width="1358"/>
  <anchor x="155" y="10" name="da.caps"/>
  <anchor x="1018" y="14" name="haa"/>
  <anchor x="1056" y="1642" name="hat.caps"/>
  <anchor x="1458" y="1009" name="he"/>
  <anchor x="384" y="1466" name="he.left.outer"/>
  <anchor x="999" y="32" name="hee"/>
  <anchor x="1067" y="75" name="hi"/>
  <anchor x="124" y="-24" name="ho"/>
  <anchor x="1042" y="329" name="hu"/>
  <anchor x="985" y="-52" name="hwa"/>
  <anchor x="777" y="1480" name="neck.caps"/>
  <outline>
    <contour>
      <point x="-59" y="-228" type="curve"/>
      <point x="67" y="-211" type="line"/>
      <point x="69" y="-146"/>
      <point x="117" y="-93"/>
      <point x="172" y="-86" type="curve" smooth="yes"/>
      <point x="301" y="-68"/>
      <point x="597" y="-121"/>
      <point x="745" y="-101" type="curve" smooth="yes"/>
      <point x="870" y="-84"/>
      <point x="978" y="86"/>
      <point x="984" y="229" type="curve"/>
      <point x="858" y="223" type="line"/>
      <point x="855" y="164"/>
      <point x="799" y="46"/>
      <point x="742" y="38" type="curve" smooth="yes"/>
      <point x="629" y="22"/>
      <point x="290" y="70"/>
      <point x="168" y="54" type="curve" smooth="yes"/>
      <point x="42" y="36"/>
      <point x="-53" y="-80"/>
    </contour>
    <component base="ya.base.cap" xOffset="66"/>
  </outline>
</glyph>
<glyph name="za.base.cap" format="2">
  <advance width="1460"/>
  <anchor x="1032" y="-27" name="haa"/>
  <anchor x="972" y="67" name="hee"/>
  <anchor x="1127" y="119" name="hi"/>
  <anchor x="60" y="-29" name="ho"/>
  <anchor x="1266" y="1001" name="hu"/>
  <anchor x="998" y="-27" name="hwa"/>
  <anchor x="1154" y="1455" name="zha.caps"/>
  <outline>
    <contour>
      <point x="-22" y="0" type="line"/>
      <point x="170" y="0" type="line"/>
      <point x="289" y="673" type="line"/>
      <point x="1023" y="673" type="line"/>
      <point x="904" y="0" type="line"/>
      <point x="1097" y="0" type="line"/>
      <point x="1354" y="1456" type="line"/>
      <point x="1161" y="1456" type="line"/>
      <point x="1051" y="830" type="line"/>
      <point x="317" y="830" type="line"/>
      <point x="427" y="1456" type="line"/>
      <point x="235" y="1456" type="line"/>
    </contour>
  </outline>
</glyph>
<glyph name="za.base" format="2">
  <advance width="1085"/>
  <anchor x="685" y="-24" name="haa"/>
  <anchor x="621" y="68" name="hee"/>
  <anchor x="746" y="117" name="hi"/>
  <anchor x="29" y="-9" name="ho"/>
  <anchor x="895" y="681" name="hu"/>
  <anchor x="659" y="-30" name="hwa"/>
  <anchor x="513" y="980" name="zha"/>
  <outline>
    <contour>
      <point x="-51" y="0" type="line"/>
      <point x="134" y="0" type="line"/>
      <point x="226" y="521" type="line"/>
      <point x="661" y="521" type="line"/>
      <point x="569" y="0" type="line"/>
      <point x="754" y="0" type="line"/>
      <point x="945" y="1082" type="line"/>
      <point x="760" y="1082" type="line"/>
      <point x="688" y="672" type="line"/>
      <point x="253" y="672" type="line"/>
      <point x="325" y="1082" type="line"/>
      <point x="140" y="1082" type="line"/>
    </contour>
  </outline>
</glyph>
<glyph name="zero.frac0" format="2">
  <advance width="751"/>
  <note>
glyph00455
</note>
  <outline>
    <contour>
      <point x="183" y="-11" type="curve" smooth="yes"/>
      <point x="371" y="-11"/>
      <point x="497" y="109"/>
      <point x="536" y="325" type="curve" smooth="yes"/>
      <point x="561" y="471" type="line" smooth="yes"/>
      <point x="596" y="680"/>
      <point x="512" y="800"/>
      <point x="324" y="800" type="curve" smooth="yes"/>
      <point x="139" y="800"/>
      <point x="9" y="680"/>
      <point x="-29" y="463" type="curve" smooth="yes"/>
      <point x="-54" y="321" type="line" smooth="yes"/>
      <point x="-90" y="108"/>
      <point x="-2" y="-11"/>
    </contour>
    <contour>
      <point x="206" y="117" type="curve" smooth="yes"/>
      <point x="113" y="117"/>
      <point x="78" y="182"/>
      <point x="101" y="311" type="curve" smooth="yes"/>
      <point x="133" y="490" type="line" smooth="yes"/>
      <point x="156" y="610"/>
      <point x="213" y="670"/>
      <point x="301" y="670" type="curve" smooth="yes"/>
      <point x="393" y="670"/>
      <point x="428" y="606"/>
      <point x="405" y="478" type="curve" smooth="yes"/>
      <point x="374" y="298" type="line" smooth="yes"/>
      <point x="350" y="177"/>
      <point x="294" y="117"/>
    </contour>
  </outline>
</glyph>
